%TF.GenerationSoftware,KiCad,Pcbnew,(6.0.0-0)*%
%TF.CreationDate,2022-03-04T21:17:09-05:00*%
%TF.ProjectId,audio-jack,61756469-6f2d-46a6-9163-6b2e6b696361,rev?*%
%TF.SameCoordinates,Original*%
%TF.FileFunction,Copper,L2,Bot*%
%TF.FilePolarity,Positive*%
%FSLAX46Y46*%
G04 Gerber Fmt 4.6, Leading zero omitted, Abs format (unit mm)*
G04 Created by KiCad (PCBNEW (6.0.0-0)) date 2022-03-04 21:17:09*
%MOMM*%
%LPD*%
G01*
G04 APERTURE LIST*
%TA.AperFunction,ComponentPad*%
%ADD10C,3.000000*%
%TD*%
%TA.AperFunction,ComponentPad*%
%ADD11R,1.700000X1.700000*%
%TD*%
%TA.AperFunction,ComponentPad*%
%ADD12O,1.700000X1.700000*%
%TD*%
%TA.AperFunction,ViaPad*%
%ADD13C,1.000000*%
%TD*%
%TA.AperFunction,Conductor*%
%ADD14C,0.350000*%
%TD*%
G04 APERTURE END LIST*
D10*
%TO.P,J1,R,R*%
%TO.N,Net-(JP1-Pad2)*%
X135128000Y-76581000D03*
%TO.P,J1,RN*%
%TO.N,Net-(J1-PadRN)*%
X118898000Y-76581000D03*
%TO.P,J1,S*%
%TO.N,Net-(J1-PadS)*%
X135128000Y-82931000D03*
%TO.P,J1,SN*%
%TO.N,Net-(J1-PadSN)*%
X118898000Y-82931000D03*
%TO.P,J1,T*%
%TO.N,Net-(JP2-Pad1)*%
X135128000Y-70231000D03*
%TO.P,J1,TN*%
%TO.N,Net-(J1-PadTN)*%
X118898000Y-70231000D03*
%TD*%
D11*
%TO.P,J5,1,Pin_1*%
%TO.N,Net-(J3-PadSN)*%
X147320000Y-59563000D03*
D12*
%TO.P,J5,2,Pin_2*%
%TO.N,Net-(J3-PadRN)*%
X149860000Y-59563000D03*
%TO.P,J5,3,Pin_3*%
%TO.N,Net-(J3-PadTN)*%
X152400000Y-59563000D03*
%TD*%
D11*
%TO.P,J4,1,Pin_1*%
%TO.N,Net-(J1-PadSN)*%
X121920000Y-59563000D03*
D12*
%TO.P,J4,2,Pin_2*%
%TO.N,Net-(J1-PadRN)*%
X124460000Y-59563000D03*
%TO.P,J4,3,Pin_3*%
%TO.N,Net-(J1-PadTN)*%
X127000000Y-59563000D03*
%TD*%
D11*
%TO.P,J2,1,Pin_1*%
%TO.N,Net-(J1-PadS)*%
X129540000Y-59563000D03*
D12*
%TO.P,J2,2,Pin_2*%
%TO.N,Net-(J2-Pad2)*%
X132080000Y-59563000D03*
%TO.P,J2,3,Pin_3*%
%TO.N,Net-(J2-Pad3)*%
X134620000Y-59563000D03*
%TO.P,J2,4,Pin_4*%
%TO.N,Net-(J2-Pad4)*%
X137160000Y-59563000D03*
%TO.P,J2,5,Pin_5*%
%TO.N,Net-(J2-Pad5)*%
X139700000Y-59563000D03*
%TO.P,J2,6,Pin_6*%
%TO.N,Net-(J2-Pad6)*%
X142240000Y-59563000D03*
%TO.P,J2,7,Pin_7*%
%TO.N,Net-(J2-Pad7)*%
X144780000Y-59563000D03*
%TD*%
D10*
%TO.P,J3,R*%
%TO.N,Net-(J3-PadR)*%
X155435000Y-76581000D03*
%TO.P,J3,RN*%
%TO.N,Net-(J3-PadRN)*%
X139205000Y-76581000D03*
%TO.P,J3,S*%
%TO.N,Net-(J2-Pad5)*%
X155435000Y-82931000D03*
%TO.P,J3,SN*%
%TO.N,Net-(J3-PadSN)*%
X139205000Y-82931000D03*
%TO.P,J3,T*%
%TO.N,Net-(J2-Pad7)*%
X155435000Y-70231000D03*
%TO.P,J3,TN*%
%TO.N,Net-(J3-PadTN)*%
X139205000Y-70231000D03*
%TD*%
D13*
%TO.N,Net-(J1-PadSN)*%
X121793000Y-67945000D03*
%TO.N,Net-(J3-PadSN)*%
X153035000Y-66167000D03*
%TD*%
D14*
%TO.N,Net-(J1-PadTN)*%
X118898000Y-70231000D02*
X118898000Y-67538000D01*
X118898000Y-67538000D02*
X123698000Y-62738000D01*
X123698000Y-62738000D02*
X126365000Y-62738000D01*
X126365000Y-62738000D02*
X127000000Y-62103000D01*
X127000000Y-62103000D02*
X127000000Y-59563000D01*
%TO.N,Net-(J3-PadRN)*%
X139205000Y-76581000D02*
X137330489Y-74706489D01*
X137330489Y-74706489D02*
X137330489Y-69454551D01*
X137330489Y-69454551D02*
X139475040Y-67310000D01*
X139475040Y-67310000D02*
X145542000Y-67310000D01*
X145542000Y-67310000D02*
X149860000Y-62992000D01*
X149860000Y-62992000D02*
X149860000Y-59563000D01*
%TO.N,Net-(J3-PadTN)*%
X139205000Y-70231000D02*
X145034000Y-70231000D01*
X145034000Y-70231000D02*
X152400000Y-62865000D01*
X152400000Y-62865000D02*
X152400000Y-59563000D01*
%TO.N,Net-(J1-PadSN)*%
X121793000Y-80036000D02*
X118898000Y-82931000D01*
X121793000Y-67945000D02*
X121793000Y-80036000D01*
%TO.N,Net-(J3-PadSN)*%
X153035000Y-66167000D02*
X153035000Y-67183000D01*
X139205000Y-81013000D02*
X139205000Y-82931000D01*
X153035000Y-67183000D02*
X139205000Y-81013000D01*
%TD*%
M02*
