%TF.GenerationSoftware,KiCad,Pcbnew,(6.0.0-0)*%
%TF.CreationDate,2022-03-04T21:17:09-05:00*%
%TF.ProjectId,audio-jack,61756469-6f2d-46a6-9163-6b2e6b696361,rev?*%
%TF.SameCoordinates,Original*%
%TF.FileFunction,Legend,Bot*%
%TF.FilePolarity,Positive*%
%FSLAX46Y46*%
G04 Gerber Fmt 4.6, Leading zero omitted, Abs format (unit mm)*
G04 Created by KiCad (PCBNEW (6.0.0-0)) date 2022-03-04 21:17:09*
%MOMM*%
%LPD*%
G01*
G04 APERTURE LIST*
%ADD10C,0.150000*%
%ADD11C,0.300000*%
G04 APERTURE END LIST*
D10*
X147804238Y-63166523D02*
X147756619Y-63023666D01*
X147756619Y-62785571D01*
X147804238Y-62690333D01*
X147851857Y-62642714D01*
X147947095Y-62595095D01*
X148042333Y-62595095D01*
X148137571Y-62642714D01*
X148185190Y-62690333D01*
X148232809Y-62785571D01*
X148280428Y-62976047D01*
X148328047Y-63071285D01*
X148375666Y-63118904D01*
X148470904Y-63166523D01*
X148566142Y-63166523D01*
X148661380Y-63118904D01*
X148709000Y-63071285D01*
X148756619Y-62976047D01*
X148756619Y-62737952D01*
X148709000Y-62595095D01*
X147756619Y-62166523D02*
X148756619Y-62166523D01*
X147756619Y-61595095D01*
X148756619Y-61595095D01*
X120372238Y-63166523D02*
X120324619Y-63023666D01*
X120324619Y-62785571D01*
X120372238Y-62690333D01*
X120419857Y-62642714D01*
X120515095Y-62595095D01*
X120610333Y-62595095D01*
X120705571Y-62642714D01*
X120753190Y-62690333D01*
X120800809Y-62785571D01*
X120848428Y-62976047D01*
X120896047Y-63071285D01*
X120943666Y-63118904D01*
X121038904Y-63166523D01*
X121134142Y-63166523D01*
X121229380Y-63118904D01*
X121277000Y-63071285D01*
X121324619Y-62976047D01*
X121324619Y-62737952D01*
X121277000Y-62595095D01*
X120324619Y-62166523D02*
X121324619Y-62166523D01*
X120324619Y-61595095D01*
X121324619Y-61595095D01*
X129008238Y-62134714D02*
X128960619Y-61991857D01*
X128960619Y-61753761D01*
X129008238Y-61658523D01*
X129055857Y-61610904D01*
X129151095Y-61563285D01*
X129246333Y-61563285D01*
X129341571Y-61610904D01*
X129389190Y-61658523D01*
X129436809Y-61753761D01*
X129484428Y-61944238D01*
X129532047Y-62039476D01*
X129579666Y-62087095D01*
X129674904Y-62134714D01*
X129770142Y-62134714D01*
X129865380Y-62087095D01*
X129913000Y-62039476D01*
X129960619Y-61944238D01*
X129960619Y-61706142D01*
X129913000Y-61563285D01*
X151357619Y-87151595D02*
X151357619Y-87723023D01*
X151357619Y-87437309D02*
X152357619Y-87437309D01*
X152214761Y-87532547D01*
X152119523Y-87627785D01*
X152071904Y-87723023D01*
X152405238Y-86008738D02*
X151119523Y-86865880D01*
X152024285Y-85246833D02*
X151357619Y-85246833D01*
X152405238Y-85484928D02*
X151690952Y-85723023D01*
X151690952Y-85103976D01*
X151357619Y-83961119D02*
X152357619Y-83961119D01*
X151357619Y-83484928D02*
X152357619Y-83484928D01*
X151357619Y-82913500D01*
X152357619Y-82913500D01*
X151452857Y-81865880D02*
X151405238Y-81913500D01*
X151357619Y-82056357D01*
X151357619Y-82151595D01*
X151405238Y-82294452D01*
X151500476Y-82389690D01*
X151595714Y-82437309D01*
X151786190Y-82484928D01*
X151929047Y-82484928D01*
X152119523Y-82437309D01*
X152214761Y-82389690D01*
X152310000Y-82294452D01*
X152357619Y-82151595D01*
X152357619Y-82056357D01*
X152310000Y-81913500D01*
X152262380Y-81865880D01*
X151357619Y-81437309D02*
X152357619Y-81437309D01*
X151881428Y-81437309D02*
X151881428Y-80865880D01*
X151357619Y-80865880D02*
X152357619Y-80865880D01*
X151405238Y-79675404D02*
X151357619Y-79532547D01*
X151357619Y-79294452D01*
X151405238Y-79199214D01*
X151452857Y-79151595D01*
X151548095Y-79103976D01*
X151643333Y-79103976D01*
X151738571Y-79151595D01*
X151786190Y-79199214D01*
X151833809Y-79294452D01*
X151881428Y-79484928D01*
X151929047Y-79580166D01*
X151976666Y-79627785D01*
X152071904Y-79675404D01*
X152167142Y-79675404D01*
X152262380Y-79627785D01*
X152310000Y-79580166D01*
X152357619Y-79484928D01*
X152357619Y-79246833D01*
X152310000Y-79103976D01*
X152357619Y-78818261D02*
X152357619Y-78246833D01*
X151357619Y-78532547D02*
X152357619Y-78532547D01*
X151881428Y-77913500D02*
X151881428Y-77580166D01*
X151357619Y-77437309D02*
X151357619Y-77913500D01*
X152357619Y-77913500D01*
X152357619Y-77437309D01*
X151357619Y-76437309D02*
X151833809Y-76770642D01*
X151357619Y-77008738D02*
X152357619Y-77008738D01*
X152357619Y-76627785D01*
X152310000Y-76532547D01*
X152262380Y-76484928D01*
X152167142Y-76437309D01*
X152024285Y-76437309D01*
X151929047Y-76484928D01*
X151881428Y-76532547D01*
X151833809Y-76627785D01*
X151833809Y-77008738D01*
X151881428Y-76008738D02*
X151881428Y-75675404D01*
X151357619Y-75532547D02*
X151357619Y-76008738D01*
X152357619Y-76008738D01*
X152357619Y-75532547D01*
X152357619Y-74913500D02*
X152357619Y-74723023D01*
X152310000Y-74627785D01*
X152214761Y-74532547D01*
X152024285Y-74484928D01*
X151690952Y-74484928D01*
X151500476Y-74532547D01*
X151405238Y-74627785D01*
X151357619Y-74723023D01*
X151357619Y-74913500D01*
X151405238Y-75008738D01*
X151500476Y-75103976D01*
X151690952Y-75151595D01*
X152024285Y-75151595D01*
X152214761Y-75103976D01*
X152310000Y-75008738D01*
X152357619Y-74913500D01*
X151643333Y-73342071D02*
X151643333Y-72865880D01*
X151357619Y-73437309D02*
X152357619Y-73103976D01*
X151357619Y-72770642D01*
X151357619Y-72437309D02*
X152357619Y-72437309D01*
X152357619Y-72199214D01*
X152310000Y-72056357D01*
X152214761Y-71961119D01*
X152119523Y-71913500D01*
X151929047Y-71865880D01*
X151786190Y-71865880D01*
X151595714Y-71913500D01*
X151500476Y-71961119D01*
X151405238Y-72056357D01*
X151357619Y-72199214D01*
X151357619Y-72437309D01*
X151643333Y-71484928D02*
X151643333Y-71008738D01*
X151357619Y-71580166D02*
X152357619Y-71246833D01*
X151357619Y-70913500D01*
X151357619Y-70580166D02*
X152357619Y-70580166D01*
X152357619Y-70199214D01*
X152310000Y-70103976D01*
X152262380Y-70056357D01*
X152167142Y-70008738D01*
X152024285Y-70008738D01*
X151929047Y-70056357D01*
X151881428Y-70103976D01*
X151833809Y-70199214D01*
X151833809Y-70580166D01*
X152357619Y-69723023D02*
X152357619Y-69151595D01*
X151357619Y-69437309D02*
X152357619Y-69437309D01*
X151881428Y-68818261D02*
X151881428Y-68484928D01*
X151357619Y-68342071D02*
X151357619Y-68818261D01*
X152357619Y-68818261D01*
X152357619Y-68342071D01*
X151357619Y-67342071D02*
X151833809Y-67675404D01*
X151357619Y-67913500D02*
X152357619Y-67913500D01*
X152357619Y-67532547D01*
X152310000Y-67437309D01*
X152262380Y-67389690D01*
X152167142Y-67342071D01*
X152024285Y-67342071D01*
X151929047Y-67389690D01*
X151881428Y-67437309D01*
X151833809Y-67532547D01*
X151833809Y-67913500D01*
X149795238Y-87723023D02*
X149747619Y-87580166D01*
X149747619Y-87342071D01*
X149795238Y-87246833D01*
X149842857Y-87199214D01*
X149938095Y-87151595D01*
X150033333Y-87151595D01*
X150128571Y-87199214D01*
X150176190Y-87246833D01*
X150223809Y-87342071D01*
X150271428Y-87532547D01*
X150319047Y-87627785D01*
X150366666Y-87675404D01*
X150461904Y-87723023D01*
X150557142Y-87723023D01*
X150652380Y-87675404D01*
X150700000Y-87627785D01*
X150747619Y-87532547D01*
X150747619Y-87294452D01*
X150700000Y-87151595D01*
X150747619Y-86532547D02*
X150747619Y-86342071D01*
X150700000Y-86246833D01*
X150604761Y-86151595D01*
X150414285Y-86103976D01*
X150080952Y-86103976D01*
X149890476Y-86151595D01*
X149795238Y-86246833D01*
X149747619Y-86342071D01*
X149747619Y-86532547D01*
X149795238Y-86627785D01*
X149890476Y-86723023D01*
X150080952Y-86770642D01*
X150414285Y-86770642D01*
X150604761Y-86723023D01*
X150700000Y-86627785D01*
X150747619Y-86532547D01*
X149747619Y-85199214D02*
X149747619Y-85675404D01*
X150747619Y-85675404D01*
X149747619Y-84865880D02*
X150747619Y-84865880D01*
X150747619Y-84627785D01*
X150700000Y-84484928D01*
X150604761Y-84389690D01*
X150509523Y-84342071D01*
X150319047Y-84294452D01*
X150176190Y-84294452D01*
X149985714Y-84342071D01*
X149890476Y-84389690D01*
X149795238Y-84484928D01*
X149747619Y-84627785D01*
X149747619Y-84865880D01*
X149747619Y-83294452D02*
X150223809Y-83627785D01*
X149747619Y-83865880D02*
X150747619Y-83865880D01*
X150747619Y-83484928D01*
X150700000Y-83389690D01*
X150652380Y-83342071D01*
X150557142Y-83294452D01*
X150414285Y-83294452D01*
X150319047Y-83342071D01*
X150271428Y-83389690D01*
X150223809Y-83484928D01*
X150223809Y-83865880D01*
X150747619Y-81818261D02*
X150033333Y-81818261D01*
X149890476Y-81865880D01*
X149795238Y-81961119D01*
X149747619Y-82103976D01*
X149747619Y-82199214D01*
X149747619Y-81342071D02*
X150747619Y-81342071D01*
X150747619Y-80961119D01*
X150700000Y-80865880D01*
X150652380Y-80818261D01*
X150557142Y-80770642D01*
X150414285Y-80770642D01*
X150319047Y-80818261D01*
X150271428Y-80865880D01*
X150223809Y-80961119D01*
X150223809Y-81342071D01*
X149747619Y-79818261D02*
X149747619Y-80389690D01*
X149747619Y-80103976D02*
X150747619Y-80103976D01*
X150604761Y-80199214D01*
X150509523Y-80294452D01*
X150461904Y-80389690D01*
X150795238Y-78675404D02*
X149509523Y-79532547D01*
X150747619Y-78056357D02*
X150033333Y-78056357D01*
X149890476Y-78103976D01*
X149795238Y-78199214D01*
X149747619Y-78342071D01*
X149747619Y-78437309D01*
X149747619Y-77580166D02*
X150747619Y-77580166D01*
X150747619Y-77199214D01*
X150700000Y-77103976D01*
X150652380Y-77056357D01*
X150557142Y-77008738D01*
X150414285Y-77008738D01*
X150319047Y-77056357D01*
X150271428Y-77103976D01*
X150223809Y-77199214D01*
X150223809Y-77580166D01*
X150747619Y-76675404D02*
X150747619Y-76056357D01*
X150366666Y-76389690D01*
X150366666Y-76246833D01*
X150319047Y-76151595D01*
X150271428Y-76103976D01*
X150176190Y-76056357D01*
X149938095Y-76056357D01*
X149842857Y-76103976D01*
X149795238Y-76151595D01*
X149747619Y-76246833D01*
X149747619Y-76532547D01*
X149795238Y-76627785D01*
X149842857Y-76675404D01*
X149747619Y-74865880D02*
X150747619Y-74865880D01*
X150747619Y-74484928D01*
X150700000Y-74389690D01*
X150652380Y-74342071D01*
X150557142Y-74294452D01*
X150414285Y-74294452D01*
X150319047Y-74342071D01*
X150271428Y-74389690D01*
X150223809Y-74484928D01*
X150223809Y-74865880D01*
X150033333Y-73913500D02*
X150033333Y-73437309D01*
X149747619Y-74008738D02*
X150747619Y-73675404D01*
X149747619Y-73342071D01*
X149747619Y-73008738D02*
X150747619Y-73008738D01*
X150747619Y-72770642D01*
X150700000Y-72627785D01*
X150604761Y-72532547D01*
X150509523Y-72484928D01*
X150319047Y-72437309D01*
X150176190Y-72437309D01*
X149985714Y-72484928D01*
X149890476Y-72532547D01*
X149795238Y-72627785D01*
X149747619Y-72770642D01*
X149747619Y-73008738D01*
X149795238Y-72056357D02*
X149747619Y-71913500D01*
X149747619Y-71675404D01*
X149795238Y-71580166D01*
X149842857Y-71532547D01*
X149938095Y-71484928D01*
X150033333Y-71484928D01*
X150128571Y-71532547D01*
X150176190Y-71580166D01*
X150223809Y-71675404D01*
X150271428Y-71865880D01*
X150319047Y-71961119D01*
X150366666Y-72008738D01*
X150461904Y-72056357D01*
X150557142Y-72056357D01*
X150652380Y-72008738D01*
X150700000Y-71961119D01*
X150747619Y-71865880D01*
X150747619Y-71627785D01*
X150700000Y-71484928D01*
X150747619Y-70437309D02*
X150747619Y-69865880D01*
X149747619Y-70151595D02*
X150747619Y-70151595D01*
X150747619Y-69342071D02*
X150747619Y-69151595D01*
X150700000Y-69056357D01*
X150604761Y-68961119D01*
X150414285Y-68913500D01*
X150080952Y-68913500D01*
X149890476Y-68961119D01*
X149795238Y-69056357D01*
X149747619Y-69151595D01*
X149747619Y-69342071D01*
X149795238Y-69437309D01*
X149890476Y-69532547D01*
X150080952Y-69580166D01*
X150414285Y-69580166D01*
X150604761Y-69532547D01*
X150700000Y-69437309D01*
X150747619Y-69342071D01*
X150271428Y-67723023D02*
X150271428Y-67389690D01*
X149747619Y-67246833D02*
X149747619Y-67723023D01*
X150747619Y-67723023D01*
X150747619Y-67246833D01*
X149747619Y-66818261D02*
X150747619Y-66818261D01*
X149747619Y-66246833D01*
X150747619Y-66246833D01*
X150033333Y-65818261D02*
X150033333Y-65342071D01*
X149747619Y-65913500D02*
X150747619Y-65580166D01*
X149747619Y-65246833D01*
X150271428Y-64580166D02*
X150223809Y-64437309D01*
X150176190Y-64389690D01*
X150080952Y-64342071D01*
X149938095Y-64342071D01*
X149842857Y-64389690D01*
X149795238Y-64437309D01*
X149747619Y-64532547D01*
X149747619Y-64913500D01*
X150747619Y-64913500D01*
X150747619Y-64580166D01*
X150700000Y-64484928D01*
X150652380Y-64437309D01*
X150557142Y-64389690D01*
X150461904Y-64389690D01*
X150366666Y-64437309D01*
X150319047Y-64484928D01*
X150271428Y-64580166D01*
X150271428Y-64913500D01*
X148185238Y-87723023D02*
X148137619Y-87580166D01*
X148137619Y-87342071D01*
X148185238Y-87246833D01*
X148232857Y-87199214D01*
X148328095Y-87151595D01*
X148423333Y-87151595D01*
X148518571Y-87199214D01*
X148566190Y-87246833D01*
X148613809Y-87342071D01*
X148661428Y-87532547D01*
X148709047Y-87627785D01*
X148756666Y-87675404D01*
X148851904Y-87723023D01*
X148947142Y-87723023D01*
X149042380Y-87675404D01*
X149090000Y-87627785D01*
X149137619Y-87532547D01*
X149137619Y-87294452D01*
X149090000Y-87151595D01*
X149137619Y-86865880D02*
X149137619Y-86294452D01*
X148137619Y-86580166D02*
X149137619Y-86580166D01*
X148661428Y-85961119D02*
X148661428Y-85627785D01*
X148137619Y-85484928D02*
X148137619Y-85961119D01*
X149137619Y-85961119D01*
X149137619Y-85484928D01*
X148137619Y-84484928D02*
X148613809Y-84818261D01*
X148137619Y-85056357D02*
X149137619Y-85056357D01*
X149137619Y-84675404D01*
X149090000Y-84580166D01*
X149042380Y-84532547D01*
X148947142Y-84484928D01*
X148804285Y-84484928D01*
X148709047Y-84532547D01*
X148661428Y-84580166D01*
X148613809Y-84675404D01*
X148613809Y-85056357D01*
X148661428Y-84056357D02*
X148661428Y-83723023D01*
X148137619Y-83580166D02*
X148137619Y-84056357D01*
X149137619Y-84056357D01*
X149137619Y-83580166D01*
X149137619Y-82961119D02*
X149137619Y-82770642D01*
X149090000Y-82675404D01*
X148994761Y-82580166D01*
X148804285Y-82532547D01*
X148470952Y-82532547D01*
X148280476Y-82580166D01*
X148185238Y-82675404D01*
X148137619Y-82770642D01*
X148137619Y-82961119D01*
X148185238Y-83056357D01*
X148280476Y-83151595D01*
X148470952Y-83199214D01*
X148804285Y-83199214D01*
X148994761Y-83151595D01*
X149090000Y-83056357D01*
X149137619Y-82961119D01*
X147756666Y-81056357D02*
X147804285Y-81103976D01*
X147947142Y-81199214D01*
X148042380Y-81246833D01*
X148185238Y-81294452D01*
X148423333Y-81342071D01*
X148613809Y-81342071D01*
X148851904Y-81294452D01*
X148994761Y-81246833D01*
X149090000Y-81199214D01*
X149232857Y-81103976D01*
X149280476Y-81056357D01*
X148137619Y-80103976D02*
X148613809Y-80437309D01*
X148137619Y-80675404D02*
X149137619Y-80675404D01*
X149137619Y-80294452D01*
X149090000Y-80199214D01*
X149042380Y-80151595D01*
X148947142Y-80103976D01*
X148804285Y-80103976D01*
X148709047Y-80151595D01*
X148661428Y-80199214D01*
X148613809Y-80294452D01*
X148613809Y-80675404D01*
X148137619Y-79675404D02*
X149137619Y-79675404D01*
X148137619Y-79199214D02*
X149137619Y-79199214D01*
X148137619Y-78627785D01*
X149137619Y-78627785D01*
X149090000Y-77627785D02*
X149137619Y-77723023D01*
X149137619Y-77865880D01*
X149090000Y-78008738D01*
X148994761Y-78103976D01*
X148899523Y-78151595D01*
X148709047Y-78199214D01*
X148566190Y-78199214D01*
X148375714Y-78151595D01*
X148280476Y-78103976D01*
X148185238Y-78008738D01*
X148137619Y-77865880D01*
X148137619Y-77770642D01*
X148185238Y-77627785D01*
X148232857Y-77580166D01*
X148566190Y-77580166D01*
X148566190Y-77770642D01*
X147756666Y-77246833D02*
X147804285Y-77199214D01*
X147947142Y-77103976D01*
X148042380Y-77056357D01*
X148185238Y-77008738D01*
X148423333Y-76961119D01*
X148613809Y-76961119D01*
X148851904Y-77008738D01*
X148994761Y-77056357D01*
X149090000Y-77103976D01*
X149232857Y-77199214D01*
X149280476Y-77246833D01*
X148232857Y-75151595D02*
X148185238Y-75199214D01*
X148137619Y-75342071D01*
X148137619Y-75437309D01*
X148185238Y-75580166D01*
X148280476Y-75675404D01*
X148375714Y-75723023D01*
X148566190Y-75770642D01*
X148709047Y-75770642D01*
X148899523Y-75723023D01*
X148994761Y-75675404D01*
X149090000Y-75580166D01*
X149137619Y-75437309D01*
X149137619Y-75342071D01*
X149090000Y-75199214D01*
X149042380Y-75151595D01*
X149137619Y-74532547D02*
X149137619Y-74342071D01*
X149090000Y-74246833D01*
X148994761Y-74151595D01*
X148804285Y-74103976D01*
X148470952Y-74103976D01*
X148280476Y-74151595D01*
X148185238Y-74246833D01*
X148137619Y-74342071D01*
X148137619Y-74532547D01*
X148185238Y-74627785D01*
X148280476Y-74723023D01*
X148470952Y-74770642D01*
X148804285Y-74770642D01*
X148994761Y-74723023D01*
X149090000Y-74627785D01*
X149137619Y-74532547D01*
X148137619Y-73675404D02*
X149137619Y-73675404D01*
X148137619Y-73103976D01*
X149137619Y-73103976D01*
X148137619Y-72627785D02*
X149137619Y-72627785D01*
X148137619Y-72056357D01*
X149137619Y-72056357D01*
X148661428Y-71580166D02*
X148661428Y-71246833D01*
X148137619Y-71103976D02*
X148137619Y-71580166D01*
X149137619Y-71580166D01*
X149137619Y-71103976D01*
X148232857Y-70103976D02*
X148185238Y-70151595D01*
X148137619Y-70294452D01*
X148137619Y-70389690D01*
X148185238Y-70532547D01*
X148280476Y-70627785D01*
X148375714Y-70675404D01*
X148566190Y-70723023D01*
X148709047Y-70723023D01*
X148899523Y-70675404D01*
X148994761Y-70627785D01*
X149090000Y-70532547D01*
X149137619Y-70389690D01*
X149137619Y-70294452D01*
X149090000Y-70151595D01*
X149042380Y-70103976D01*
X149137619Y-69818261D02*
X149137619Y-69246833D01*
X148137619Y-69532547D02*
X149137619Y-69532547D01*
X148137619Y-68913500D02*
X149137619Y-68913500D01*
X149137619Y-68246833D02*
X149137619Y-68056357D01*
X149090000Y-67961119D01*
X148994761Y-67865880D01*
X148804285Y-67818261D01*
X148470952Y-67818261D01*
X148280476Y-67865880D01*
X148185238Y-67961119D01*
X148137619Y-68056357D01*
X148137619Y-68246833D01*
X148185238Y-68342071D01*
X148280476Y-68437309D01*
X148470952Y-68484928D01*
X148804285Y-68484928D01*
X148994761Y-68437309D01*
X149090000Y-68342071D01*
X149137619Y-68246833D01*
X148137619Y-67389690D02*
X149137619Y-67389690D01*
X148137619Y-66818261D01*
X149137619Y-66818261D01*
X146622857Y-87103976D02*
X146575238Y-87151595D01*
X146527619Y-87294452D01*
X146527619Y-87389690D01*
X146575238Y-87532547D01*
X146670476Y-87627785D01*
X146765714Y-87675404D01*
X146956190Y-87723023D01*
X147099047Y-87723023D01*
X147289523Y-87675404D01*
X147384761Y-87627785D01*
X147480000Y-87532547D01*
X147527619Y-87389690D01*
X147527619Y-87294452D01*
X147480000Y-87151595D01*
X147432380Y-87103976D01*
X147527619Y-86675404D02*
X146718095Y-86675404D01*
X146622857Y-86627785D01*
X146575238Y-86580166D01*
X146527619Y-86484928D01*
X146527619Y-86294452D01*
X146575238Y-86199214D01*
X146622857Y-86151595D01*
X146718095Y-86103976D01*
X147527619Y-86103976D01*
X147527619Y-85770642D02*
X147527619Y-85199214D01*
X146527619Y-85484928D02*
X147527619Y-85484928D01*
X147575238Y-84151595D02*
X146289523Y-85008738D01*
X146575238Y-83865880D02*
X146527619Y-83723023D01*
X146527619Y-83484928D01*
X146575238Y-83389690D01*
X146622857Y-83342071D01*
X146718095Y-83294452D01*
X146813333Y-83294452D01*
X146908571Y-83342071D01*
X146956190Y-83389690D01*
X147003809Y-83484928D01*
X147051428Y-83675404D01*
X147099047Y-83770642D01*
X147146666Y-83818261D01*
X147241904Y-83865880D01*
X147337142Y-83865880D01*
X147432380Y-83818261D01*
X147480000Y-83770642D01*
X147527619Y-83675404D01*
X147527619Y-83437309D01*
X147480000Y-83294452D01*
X147527619Y-82675404D02*
X147527619Y-82484928D01*
X147480000Y-82389690D01*
X147384761Y-82294452D01*
X147194285Y-82246833D01*
X146860952Y-82246833D01*
X146670476Y-82294452D01*
X146575238Y-82389690D01*
X146527619Y-82484928D01*
X146527619Y-82675404D01*
X146575238Y-82770642D01*
X146670476Y-82865880D01*
X146860952Y-82913500D01*
X147194285Y-82913500D01*
X147384761Y-82865880D01*
X147480000Y-82770642D01*
X147527619Y-82675404D01*
X146527619Y-81342071D02*
X146527619Y-81818261D01*
X147527619Y-81818261D01*
X146527619Y-81008738D02*
X147527619Y-81008738D01*
X147527619Y-80770642D01*
X147480000Y-80627785D01*
X147384761Y-80532547D01*
X147289523Y-80484928D01*
X147099047Y-80437309D01*
X146956190Y-80437309D01*
X146765714Y-80484928D01*
X146670476Y-80532547D01*
X146575238Y-80627785D01*
X146527619Y-80770642D01*
X146527619Y-81008738D01*
X146527619Y-79437309D02*
X147003809Y-79770642D01*
X146527619Y-80008738D02*
X147527619Y-80008738D01*
X147527619Y-79627785D01*
X147480000Y-79532547D01*
X147432380Y-79484928D01*
X147337142Y-79437309D01*
X147194285Y-79437309D01*
X147099047Y-79484928D01*
X147051428Y-79532547D01*
X147003809Y-79627785D01*
X147003809Y-80008738D01*
X147527619Y-77961119D02*
X146813333Y-77961119D01*
X146670476Y-78008738D01*
X146575238Y-78103976D01*
X146527619Y-78246833D01*
X146527619Y-78342071D01*
X146527619Y-77484928D02*
X147527619Y-77484928D01*
X147527619Y-77103976D01*
X147480000Y-77008738D01*
X147432380Y-76961119D01*
X147337142Y-76913500D01*
X147194285Y-76913500D01*
X147099047Y-76961119D01*
X147051428Y-77008738D01*
X147003809Y-77103976D01*
X147003809Y-77484928D01*
X147432380Y-76532547D02*
X147480000Y-76484928D01*
X147527619Y-76389690D01*
X147527619Y-76151595D01*
X147480000Y-76056357D01*
X147432380Y-76008738D01*
X147337142Y-75961119D01*
X147241904Y-75961119D01*
X147099047Y-76008738D01*
X146527619Y-76580166D01*
X146527619Y-75961119D01*
X147527619Y-74913500D02*
X147527619Y-74342071D01*
X146527619Y-74627785D02*
X147527619Y-74627785D01*
X147527619Y-73818261D02*
X147527619Y-73627785D01*
X147480000Y-73532547D01*
X147384761Y-73437309D01*
X147194285Y-73389690D01*
X146860952Y-73389690D01*
X146670476Y-73437309D01*
X146575238Y-73532547D01*
X146527619Y-73627785D01*
X146527619Y-73818261D01*
X146575238Y-73913500D01*
X146670476Y-74008738D01*
X146860952Y-74056357D01*
X147194285Y-74056357D01*
X147384761Y-74008738D01*
X147480000Y-73913500D01*
X147527619Y-73818261D01*
X146622857Y-71627785D02*
X146575238Y-71675404D01*
X146527619Y-71818261D01*
X146527619Y-71913500D01*
X146575238Y-72056357D01*
X146670476Y-72151595D01*
X146765714Y-72199214D01*
X146956190Y-72246833D01*
X147099047Y-72246833D01*
X147289523Y-72199214D01*
X147384761Y-72151595D01*
X147480000Y-72056357D01*
X147527619Y-71913500D01*
X147527619Y-71818261D01*
X147480000Y-71675404D01*
X147432380Y-71627785D01*
X147527619Y-71008738D02*
X147527619Y-70818261D01*
X147480000Y-70723023D01*
X147384761Y-70627785D01*
X147194285Y-70580166D01*
X146860952Y-70580166D01*
X146670476Y-70627785D01*
X146575238Y-70723023D01*
X146527619Y-70818261D01*
X146527619Y-71008738D01*
X146575238Y-71103976D01*
X146670476Y-71199214D01*
X146860952Y-71246833D01*
X147194285Y-71246833D01*
X147384761Y-71199214D01*
X147480000Y-71103976D01*
X147527619Y-71008738D01*
X146527619Y-70151595D02*
X147527619Y-70151595D01*
X146527619Y-69580166D01*
X147527619Y-69580166D01*
X146527619Y-69103976D02*
X147527619Y-69103976D01*
X146527619Y-68532547D01*
X147527619Y-68532547D01*
X147051428Y-68056357D02*
X147051428Y-67723023D01*
X146527619Y-67580166D02*
X146527619Y-68056357D01*
X147527619Y-68056357D01*
X147527619Y-67580166D01*
X146622857Y-66580166D02*
X146575238Y-66627785D01*
X146527619Y-66770642D01*
X146527619Y-66865880D01*
X146575238Y-67008738D01*
X146670476Y-67103976D01*
X146765714Y-67151595D01*
X146956190Y-67199214D01*
X147099047Y-67199214D01*
X147289523Y-67151595D01*
X147384761Y-67103976D01*
X147480000Y-67008738D01*
X147527619Y-66865880D01*
X147527619Y-66770642D01*
X147480000Y-66627785D01*
X147432380Y-66580166D01*
X147527619Y-66294452D02*
X147527619Y-65723023D01*
X146527619Y-66008738D02*
X147527619Y-66008738D01*
X144917619Y-87199214D02*
X144917619Y-87675404D01*
X145917619Y-87675404D01*
X145441428Y-86865880D02*
X145441428Y-86532547D01*
X144917619Y-86389690D02*
X144917619Y-86865880D01*
X145917619Y-86865880D01*
X145917619Y-86389690D01*
X145441428Y-85627785D02*
X145441428Y-85961119D01*
X144917619Y-85961119D02*
X145917619Y-85961119D01*
X145917619Y-85484928D01*
X145917619Y-85246833D02*
X145917619Y-84675404D01*
X144917619Y-84961119D02*
X145917619Y-84961119D01*
X145917619Y-83723023D02*
X145917619Y-83151595D01*
X144917619Y-83437309D02*
X145917619Y-83437309D01*
X144917619Y-82818261D02*
X145917619Y-82818261D01*
X144917619Y-82342071D02*
X145917619Y-82342071D01*
X145917619Y-81961119D01*
X145870000Y-81865880D01*
X145822380Y-81818261D01*
X145727142Y-81770642D01*
X145584285Y-81770642D01*
X145489047Y-81818261D01*
X145441428Y-81865880D01*
X145393809Y-81961119D01*
X145393809Y-82342071D01*
X145917619Y-80723023D02*
X145917619Y-80151595D01*
X144917619Y-80437309D02*
X145917619Y-80437309D01*
X145917619Y-79627785D02*
X145917619Y-79437309D01*
X145870000Y-79342071D01*
X145774761Y-79246833D01*
X145584285Y-79199214D01*
X145250952Y-79199214D01*
X145060476Y-79246833D01*
X144965238Y-79342071D01*
X144917619Y-79437309D01*
X144917619Y-79627785D01*
X144965238Y-79723023D01*
X145060476Y-79818261D01*
X145250952Y-79865880D01*
X145584285Y-79865880D01*
X145774761Y-79818261D01*
X145870000Y-79723023D01*
X145917619Y-79627785D01*
X144917619Y-78008738D02*
X145917619Y-78008738D01*
X145203333Y-77675404D01*
X145917619Y-77342071D01*
X144917619Y-77342071D01*
X144917619Y-76865880D02*
X145917619Y-76865880D01*
X144917619Y-76389690D02*
X145917619Y-76389690D01*
X145917619Y-76151595D01*
X145870000Y-76008738D01*
X145774761Y-75913500D01*
X145679523Y-75865880D01*
X145489047Y-75818261D01*
X145346190Y-75818261D01*
X145155714Y-75865880D01*
X145060476Y-75913500D01*
X144965238Y-76008738D01*
X144917619Y-76151595D01*
X144917619Y-76389690D01*
X144917619Y-74913500D02*
X144917619Y-75389690D01*
X145917619Y-75389690D01*
X145441428Y-74580166D02*
X145441428Y-74246833D01*
X144917619Y-74103976D02*
X144917619Y-74580166D01*
X145917619Y-74580166D01*
X145917619Y-74103976D01*
X144917619Y-72913500D02*
X145917619Y-72913500D01*
X145917619Y-72532547D01*
X145870000Y-72437309D01*
X145822380Y-72389690D01*
X145727142Y-72342071D01*
X145584285Y-72342071D01*
X145489047Y-72389690D01*
X145441428Y-72437309D01*
X145393809Y-72532547D01*
X145393809Y-72913500D01*
X144917619Y-71913500D02*
X145917619Y-71913500D01*
X144917619Y-71437309D02*
X145917619Y-71437309D01*
X144917619Y-70865880D01*
X145917619Y-70865880D01*
X141914619Y-61539476D02*
X142390809Y-61872809D01*
X141914619Y-62110904D02*
X142914619Y-62110904D01*
X142914619Y-61729952D01*
X142867000Y-61634714D01*
X142819380Y-61587095D01*
X142724142Y-61539476D01*
X142581285Y-61539476D01*
X142486047Y-61587095D01*
X142438428Y-61634714D01*
X142390809Y-61729952D01*
X142390809Y-62110904D01*
X139295238Y-62134714D02*
X139247619Y-61991857D01*
X139247619Y-61753761D01*
X139295238Y-61658523D01*
X139342857Y-61610904D01*
X139438095Y-61563285D01*
X139533333Y-61563285D01*
X139628571Y-61610904D01*
X139676190Y-61658523D01*
X139723809Y-61753761D01*
X139771428Y-61944238D01*
X139819047Y-62039476D01*
X139866666Y-62087095D01*
X139961904Y-62134714D01*
X140057142Y-62134714D01*
X140152380Y-62087095D01*
X140200000Y-62039476D01*
X140247619Y-61944238D01*
X140247619Y-61706142D01*
X140200000Y-61563285D01*
X153836619Y-63166523D02*
X153836619Y-62595095D01*
X152836619Y-62880809D02*
X153836619Y-62880809D01*
X152836619Y-62261761D02*
X153836619Y-62261761D01*
X152836619Y-61690333D01*
X153836619Y-61690333D01*
X124812619Y-68643380D02*
X124812619Y-69119571D01*
X125812619Y-69119571D01*
X125336428Y-68310047D02*
X125336428Y-67976714D01*
X124812619Y-67833857D02*
X124812619Y-68310047D01*
X125812619Y-68310047D01*
X125812619Y-67833857D01*
X125336428Y-67071952D02*
X125336428Y-67405285D01*
X124812619Y-67405285D02*
X125812619Y-67405285D01*
X125812619Y-66929095D01*
X125812619Y-66691000D02*
X125812619Y-66119571D01*
X124812619Y-66405285D02*
X125812619Y-66405285D01*
X124202619Y-68976714D02*
X123488333Y-68976714D01*
X123345476Y-69024333D01*
X123250238Y-69119571D01*
X123202619Y-69262428D01*
X123202619Y-69357666D01*
X123488333Y-68548142D02*
X123488333Y-68071952D01*
X123202619Y-68643380D02*
X124202619Y-68310047D01*
X123202619Y-67976714D01*
X123297857Y-67071952D02*
X123250238Y-67119571D01*
X123202619Y-67262428D01*
X123202619Y-67357666D01*
X123250238Y-67500523D01*
X123345476Y-67595761D01*
X123440714Y-67643380D01*
X123631190Y-67691000D01*
X123774047Y-67691000D01*
X123964523Y-67643380D01*
X124059761Y-67595761D01*
X124155000Y-67500523D01*
X124202619Y-67357666D01*
X124202619Y-67262428D01*
X124155000Y-67119571D01*
X124107380Y-67071952D01*
X123202619Y-66643380D02*
X124202619Y-66643380D01*
X123202619Y-66071952D02*
X123774047Y-66500523D01*
X124202619Y-66071952D02*
X123631190Y-66643380D01*
X142846619Y-68770333D02*
X143322809Y-69103666D01*
X142846619Y-69341761D02*
X143846619Y-69341761D01*
X143846619Y-68960809D01*
X143799000Y-68865571D01*
X143751380Y-68817952D01*
X143656142Y-68770333D01*
X143513285Y-68770333D01*
X143418047Y-68817952D01*
X143370428Y-68865571D01*
X143322809Y-68960809D01*
X143322809Y-69341761D01*
X142846619Y-68341761D02*
X143846619Y-68341761D01*
X143799000Y-67341761D02*
X143846619Y-67437000D01*
X143846619Y-67579857D01*
X143799000Y-67722714D01*
X143703761Y-67817952D01*
X143608523Y-67865571D01*
X143418047Y-67913190D01*
X143275190Y-67913190D01*
X143084714Y-67865571D01*
X142989476Y-67817952D01*
X142894238Y-67722714D01*
X142846619Y-67579857D01*
X142846619Y-67484619D01*
X142894238Y-67341761D01*
X142941857Y-67294142D01*
X143275190Y-67294142D01*
X143275190Y-67484619D01*
X142846619Y-66865571D02*
X143846619Y-66865571D01*
X143370428Y-66865571D02*
X143370428Y-66294142D01*
X142846619Y-66294142D02*
X143846619Y-66294142D01*
X143846619Y-65960809D02*
X143846619Y-65389380D01*
X142846619Y-65675095D02*
X143846619Y-65675095D01*
X142236619Y-68722714D02*
X141522333Y-68722714D01*
X141379476Y-68770333D01*
X141284238Y-68865571D01*
X141236619Y-69008428D01*
X141236619Y-69103666D01*
X141522333Y-68294142D02*
X141522333Y-67817952D01*
X141236619Y-68389380D02*
X142236619Y-68056047D01*
X141236619Y-67722714D01*
X141331857Y-66817952D02*
X141284238Y-66865571D01*
X141236619Y-67008428D01*
X141236619Y-67103666D01*
X141284238Y-67246523D01*
X141379476Y-67341761D01*
X141474714Y-67389380D01*
X141665190Y-67437000D01*
X141808047Y-67437000D01*
X141998523Y-67389380D01*
X142093761Y-67341761D01*
X142189000Y-67246523D01*
X142236619Y-67103666D01*
X142236619Y-67008428D01*
X142189000Y-66865571D01*
X142141380Y-66817952D01*
X141236619Y-66389380D02*
X142236619Y-66389380D01*
X141236619Y-65817952D02*
X141808047Y-66246523D01*
X142236619Y-65817952D02*
X141665190Y-66389380D01*
X150423619Y-62571285D02*
X150899809Y-62904619D01*
X150423619Y-63142714D02*
X151423619Y-63142714D01*
X151423619Y-62761761D01*
X151376000Y-62666523D01*
X151328380Y-62618904D01*
X151233142Y-62571285D01*
X151090285Y-62571285D01*
X150995047Y-62618904D01*
X150947428Y-62666523D01*
X150899809Y-62761761D01*
X150899809Y-63142714D01*
X150423619Y-62142714D02*
X151423619Y-62142714D01*
X150423619Y-61571285D01*
X151423619Y-61571285D01*
X135040619Y-62134714D02*
X135040619Y-61563285D01*
X134040619Y-61849000D02*
X135040619Y-61849000D01*
X131627619Y-61539476D02*
X132103809Y-61872809D01*
X131627619Y-62110904D02*
X132627619Y-62110904D01*
X132627619Y-61729952D01*
X132580000Y-61634714D01*
X132532380Y-61587095D01*
X132437142Y-61539476D01*
X132294285Y-61539476D01*
X132199047Y-61587095D01*
X132151428Y-61634714D01*
X132103809Y-61729952D01*
X132103809Y-62110904D01*
X145327619Y-62134714D02*
X145327619Y-61563285D01*
X144327619Y-61849000D02*
X145327619Y-61849000D01*
X122991619Y-62571285D02*
X123467809Y-62904619D01*
X122991619Y-63142714D02*
X123991619Y-63142714D01*
X123991619Y-62761761D01*
X123944000Y-62666523D01*
X123896380Y-62618904D01*
X123801142Y-62571285D01*
X123658285Y-62571285D01*
X123563047Y-62618904D01*
X123515428Y-62666523D01*
X123467809Y-62761761D01*
X123467809Y-63142714D01*
X122991619Y-62142714D02*
X123991619Y-62142714D01*
X122991619Y-61571285D01*
X123991619Y-61571285D01*
X126404619Y-63166523D02*
X126404619Y-62595095D01*
X125404619Y-62880809D02*
X126404619Y-62880809D01*
X125404619Y-62261761D02*
X126404619Y-62261761D01*
X125404619Y-61690333D01*
X126404619Y-61690333D01*
X132554071Y-73037571D02*
X132411214Y-73085190D01*
X132363595Y-73132809D01*
X132315976Y-73228047D01*
X132315976Y-73370904D01*
X132363595Y-73466142D01*
X132411214Y-73513761D01*
X132506452Y-73561380D01*
X132887404Y-73561380D01*
X132887404Y-72561380D01*
X132554071Y-72561380D01*
X132458833Y-72609000D01*
X132411214Y-72656619D01*
X132363595Y-72751857D01*
X132363595Y-72847095D01*
X132411214Y-72942333D01*
X132458833Y-72989952D01*
X132554071Y-73037571D01*
X132887404Y-73037571D01*
X131696928Y-73085190D02*
X131696928Y-73561380D01*
X132030261Y-72561380D02*
X131696928Y-73085190D01*
X131363595Y-72561380D01*
X129982642Y-72561380D02*
X129982642Y-73275666D01*
X130030261Y-73418523D01*
X130125500Y-73513761D01*
X130268357Y-73561380D01*
X130363595Y-73561380D01*
X129506452Y-73037571D02*
X129173119Y-73037571D01*
X129030261Y-73561380D02*
X129506452Y-73561380D01*
X129506452Y-72561380D01*
X129030261Y-72561380D01*
X128030261Y-73561380D02*
X128363595Y-73085190D01*
X128601690Y-73561380D02*
X128601690Y-72561380D01*
X128220738Y-72561380D01*
X128125500Y-72609000D01*
X128077880Y-72656619D01*
X128030261Y-72751857D01*
X128030261Y-72894714D01*
X128077880Y-72989952D01*
X128125500Y-73037571D01*
X128220738Y-73085190D01*
X128601690Y-73085190D01*
X127601690Y-73037571D02*
X127268357Y-73037571D01*
X127125500Y-73561380D02*
X127601690Y-73561380D01*
X127601690Y-72561380D01*
X127125500Y-72561380D01*
X126696928Y-73561380D02*
X126696928Y-72561380D01*
X126363595Y-73275666D01*
X126030261Y-72561380D01*
X126030261Y-73561380D01*
X125363595Y-73085190D02*
X125363595Y-73561380D01*
X125696928Y-72561380D02*
X125363595Y-73085190D01*
X125030261Y-72561380D01*
X123363595Y-73466142D02*
X123411214Y-73513761D01*
X123554071Y-73561380D01*
X123649309Y-73561380D01*
X123792166Y-73513761D01*
X123887404Y-73418523D01*
X123935023Y-73323285D01*
X123982642Y-73132809D01*
X123982642Y-72989952D01*
X123935023Y-72799476D01*
X123887404Y-72704238D01*
X123792166Y-72609000D01*
X123649309Y-72561380D01*
X123554071Y-72561380D01*
X123411214Y-72609000D01*
X123363595Y-72656619D01*
X122744547Y-72561380D02*
X122554071Y-72561380D01*
X122458833Y-72609000D01*
X122363595Y-72704238D01*
X122315976Y-72894714D01*
X122315976Y-73228047D01*
X122363595Y-73418523D01*
X122458833Y-73513761D01*
X122554071Y-73561380D01*
X122744547Y-73561380D01*
X122839785Y-73513761D01*
X122935023Y-73418523D01*
X122982642Y-73228047D01*
X122982642Y-72894714D01*
X122935023Y-72704238D01*
X122839785Y-72609000D01*
X122744547Y-72561380D01*
X121696928Y-72561380D02*
X121506452Y-72561380D01*
X121411214Y-72609000D01*
X121315976Y-72704238D01*
X121268357Y-72894714D01*
X121268357Y-73228047D01*
X121315976Y-73418523D01*
X121411214Y-73513761D01*
X121506452Y-73561380D01*
X121696928Y-73561380D01*
X121792166Y-73513761D01*
X121887404Y-73418523D01*
X121935023Y-73228047D01*
X121935023Y-72894714D01*
X121887404Y-72704238D01*
X121792166Y-72609000D01*
X121696928Y-72561380D01*
X120839785Y-73561380D02*
X120839785Y-72561380D01*
X120268357Y-73561380D02*
X120696928Y-72989952D01*
X120268357Y-72561380D02*
X120839785Y-73132809D01*
X132601690Y-74171380D02*
X132601690Y-74885666D01*
X132649309Y-75028523D01*
X132744547Y-75123761D01*
X132887404Y-75171380D01*
X132982642Y-75171380D01*
X131554071Y-75076142D02*
X131601690Y-75123761D01*
X131744547Y-75171380D01*
X131839785Y-75171380D01*
X131982642Y-75123761D01*
X132077880Y-75028523D01*
X132125500Y-74933285D01*
X132173119Y-74742809D01*
X132173119Y-74599952D01*
X132125500Y-74409476D01*
X132077880Y-74314238D01*
X131982642Y-74219000D01*
X131839785Y-74171380D01*
X131744547Y-74171380D01*
X131601690Y-74219000D01*
X131554071Y-74266619D01*
X131125500Y-75171380D02*
X131125500Y-74171380D01*
X130887404Y-74171380D01*
X130744547Y-74219000D01*
X130649309Y-74314238D01*
X130601690Y-74409476D01*
X130554071Y-74599952D01*
X130554071Y-74742809D01*
X130601690Y-74933285D01*
X130649309Y-75028523D01*
X130744547Y-75123761D01*
X130887404Y-75171380D01*
X131125500Y-75171380D01*
X130125500Y-74647571D02*
X129792166Y-74647571D01*
X129649309Y-75171380D02*
X130125500Y-75171380D01*
X130125500Y-74171380D01*
X129649309Y-74171380D01*
X129363595Y-74171380D02*
X129030261Y-75171380D01*
X128696928Y-74171380D01*
X128363595Y-75171380D02*
X128363595Y-74171380D01*
X127315976Y-75076142D02*
X127363595Y-75123761D01*
X127506452Y-75171380D01*
X127601690Y-75171380D01*
X127744547Y-75123761D01*
X127839785Y-75028523D01*
X127887404Y-74933285D01*
X127935023Y-74742809D01*
X127935023Y-74599952D01*
X127887404Y-74409476D01*
X127839785Y-74314238D01*
X127744547Y-74219000D01*
X127601690Y-74171380D01*
X127506452Y-74171380D01*
X127363595Y-74219000D01*
X127315976Y-74266619D01*
X126887404Y-74647571D02*
X126554071Y-74647571D01*
X126411214Y-75171380D02*
X126887404Y-75171380D01*
X126887404Y-74171380D01*
X126411214Y-74171380D01*
X126030261Y-75123761D02*
X125887404Y-75171380D01*
X125649309Y-75171380D01*
X125554071Y-75123761D01*
X125506452Y-75076142D01*
X125458833Y-74980904D01*
X125458833Y-74885666D01*
X125506452Y-74790428D01*
X125554071Y-74742809D01*
X125649309Y-74695190D01*
X125839785Y-74647571D01*
X125935023Y-74599952D01*
X125982642Y-74552333D01*
X126030261Y-74457095D01*
X126030261Y-74361857D01*
X125982642Y-74266619D01*
X125935023Y-74219000D01*
X125839785Y-74171380D01*
X125601690Y-74171380D01*
X125458833Y-74219000D01*
X125030261Y-75076142D02*
X124982642Y-75123761D01*
X125030261Y-75171380D01*
X125077880Y-75123761D01*
X125030261Y-75076142D01*
X125030261Y-75171380D01*
X123982642Y-75076142D02*
X124030261Y-75123761D01*
X124173119Y-75171380D01*
X124268357Y-75171380D01*
X124411214Y-75123761D01*
X124506452Y-75028523D01*
X124554071Y-74933285D01*
X124601690Y-74742809D01*
X124601690Y-74599952D01*
X124554071Y-74409476D01*
X124506452Y-74314238D01*
X124411214Y-74219000D01*
X124268357Y-74171380D01*
X124173119Y-74171380D01*
X124030261Y-74219000D01*
X123982642Y-74266619D01*
X123363595Y-74171380D02*
X123173119Y-74171380D01*
X123077880Y-74219000D01*
X122982642Y-74314238D01*
X122935023Y-74504714D01*
X122935023Y-74838047D01*
X122982642Y-75028523D01*
X123077880Y-75123761D01*
X123173119Y-75171380D01*
X123363595Y-75171380D01*
X123458833Y-75123761D01*
X123554071Y-75028523D01*
X123601690Y-74838047D01*
X123601690Y-74504714D01*
X123554071Y-74314238D01*
X123458833Y-74219000D01*
X123363595Y-74171380D01*
X122506452Y-75171380D02*
X122506452Y-74171380D01*
X122173119Y-74885666D01*
X121839785Y-74171380D01*
X121839785Y-75171380D01*
D11*
%TO.C,G\u002A\u002A\u002A*%
X102561571Y-165735000D02*
X102706714Y-165662428D01*
X102924428Y-165662428D01*
X103142142Y-165735000D01*
X103287285Y-165880142D01*
X103359857Y-166025285D01*
X103432428Y-166315571D01*
X103432428Y-166533285D01*
X103359857Y-166823571D01*
X103287285Y-166968714D01*
X103142142Y-167113857D01*
X102924428Y-167186428D01*
X102779285Y-167186428D01*
X102561571Y-167113857D01*
X102489000Y-167041285D01*
X102489000Y-166533285D01*
X102779285Y-166533285D01*
X101618142Y-165662428D02*
X101618142Y-166025285D01*
X101981000Y-165880142D02*
X101618142Y-166025285D01*
X101255285Y-165880142D01*
X101835857Y-166315571D02*
X101618142Y-166025285D01*
X101400428Y-166315571D01*
X100457000Y-165662428D02*
X100457000Y-166025285D01*
X100819857Y-165880142D02*
X100457000Y-166025285D01*
X100094142Y-165880142D01*
X100674714Y-166315571D02*
X100457000Y-166025285D01*
X100239285Y-166315571D01*
X99295857Y-165662428D02*
X99295857Y-166025285D01*
X99658714Y-165880142D02*
X99295857Y-166025285D01*
X98933000Y-165880142D01*
X99513571Y-166315571D02*
X99295857Y-166025285D01*
X99078142Y-166315571D01*
G36*
X120999185Y-87915815D02*
G01*
X120999185Y-82911095D01*
X121815427Y-82911095D01*
X121815435Y-83000921D01*
X121815761Y-83087172D01*
X121816405Y-83163014D01*
X121818859Y-83372095D01*
X122240733Y-83372095D01*
X122240733Y-82958245D01*
X122654582Y-82958245D01*
X122654582Y-82130229D01*
X122855041Y-82132543D01*
X123055499Y-82134858D01*
X123057533Y-82749165D01*
X123059568Y-83363473D01*
X122645960Y-83363473D01*
X122645535Y-83572553D01*
X122645527Y-83576735D01*
X122645442Y-83652927D01*
X122645447Y-83738695D01*
X122645536Y-83827333D01*
X122645702Y-83912137D01*
X122645940Y-83986402D01*
X122646769Y-84191171D01*
X121818262Y-84191171D01*
X121818075Y-84400251D01*
X121818002Y-84486769D01*
X121817888Y-84652916D01*
X121817805Y-84820435D01*
X121817752Y-84988440D01*
X121817728Y-85156045D01*
X121817732Y-85322362D01*
X121817763Y-85486506D01*
X121817820Y-85647590D01*
X121817902Y-85804728D01*
X121818008Y-85957032D01*
X121818136Y-86103617D01*
X121818287Y-86243596D01*
X121818459Y-86376082D01*
X121818650Y-86500190D01*
X121818861Y-86615032D01*
X121819089Y-86719722D01*
X121819335Y-86813374D01*
X121819597Y-86895101D01*
X121819873Y-86964017D01*
X121820164Y-87019235D01*
X121820467Y-87059869D01*
X121820782Y-87085032D01*
X121821109Y-87093837D01*
X121821804Y-87093952D01*
X121834952Y-87094392D01*
X121863808Y-87094833D01*
X121907153Y-87095271D01*
X121963770Y-87095705D01*
X122032440Y-87096132D01*
X122111943Y-87096548D01*
X122201063Y-87096952D01*
X122298581Y-87097341D01*
X122403277Y-87097711D01*
X122513935Y-87098062D01*
X122629334Y-87098389D01*
X122748258Y-87098690D01*
X122869487Y-87098963D01*
X122991804Y-87099205D01*
X123113989Y-87099414D01*
X123234825Y-87099586D01*
X123353092Y-87099719D01*
X123467573Y-87099811D01*
X123577049Y-87099859D01*
X123680302Y-87099861D01*
X123776113Y-87099812D01*
X123863264Y-87099712D01*
X123940537Y-87099558D01*
X124006712Y-87099346D01*
X124060573Y-87099074D01*
X124100899Y-87098740D01*
X124309979Y-87096432D01*
X124309979Y-86683200D01*
X125131212Y-86685200D01*
X125952444Y-86687200D01*
X125954755Y-86891969D01*
X125957067Y-87096738D01*
X126379226Y-87096738D01*
X126379226Y-86682571D01*
X126579684Y-86684885D01*
X126780142Y-86687200D01*
X126782454Y-86891969D01*
X126784765Y-87096738D01*
X127206924Y-87096738D01*
X127612152Y-87096738D01*
X127812610Y-87096966D01*
X127824028Y-87096981D01*
X127897882Y-87097173D01*
X127981573Y-87097515D01*
X128068795Y-87097976D01*
X128153244Y-87098522D01*
X128228615Y-87099121D01*
X128238853Y-87099208D01*
X128316945Y-87099648D01*
X128403975Y-87099815D01*
X128493397Y-87099715D01*
X128578668Y-87099355D01*
X128653242Y-87098740D01*
X128862322Y-87096432D01*
X128862322Y-87088116D01*
X129276171Y-87088116D01*
X132173116Y-87088116D01*
X132173116Y-84191171D01*
X129276171Y-84191171D01*
X129276171Y-87088116D01*
X128862322Y-87088116D01*
X128862322Y-86674267D01*
X127612152Y-86674267D01*
X127612152Y-87096738D01*
X127206924Y-87096738D01*
X127206924Y-86260418D01*
X126793075Y-86260418D01*
X126793075Y-85855190D01*
X127206924Y-85855190D01*
X127206924Y-85441023D01*
X127407383Y-85443338D01*
X127607841Y-85445652D01*
X127609947Y-85854422D01*
X127610425Y-85936185D01*
X127610985Y-86013041D01*
X127611604Y-86082804D01*
X127612263Y-86143784D01*
X127612940Y-86194287D01*
X127613616Y-86232622D01*
X127614270Y-86257098D01*
X127614882Y-86266022D01*
X127622614Y-86266552D01*
X127646535Y-86267088D01*
X127685514Y-86267581D01*
X127738412Y-86268028D01*
X127804093Y-86268423D01*
X127881420Y-86268765D01*
X127969254Y-86269048D01*
X128066460Y-86269271D01*
X128171898Y-86269428D01*
X128284433Y-86269516D01*
X128402927Y-86269532D01*
X128526242Y-86269473D01*
X128653242Y-86269333D01*
X128862322Y-86269040D01*
X128862322Y-84605021D01*
X128439850Y-84605021D01*
X128439850Y-85018870D01*
X128034623Y-85018870D01*
X128034623Y-84605021D01*
X127620774Y-84605021D01*
X127620774Y-84191171D01*
X126784453Y-84191171D01*
X126784453Y-84613330D01*
X126989223Y-84615642D01*
X127193992Y-84617953D01*
X127196097Y-85025336D01*
X127198201Y-85432719D01*
X125965377Y-85432719D01*
X125965377Y-85027492D01*
X126379226Y-85027492D01*
X126379226Y-84605021D01*
X125956755Y-84605021D01*
X125956755Y-85018870D01*
X125551527Y-85018870D01*
X125551527Y-84199793D01*
X125965377Y-84199793D01*
X125965377Y-83785944D01*
X126379226Y-83785944D01*
X126379226Y-83371777D01*
X126780142Y-83376405D01*
X126782454Y-83581175D01*
X126784765Y-83785944D01*
X127206924Y-83785944D01*
X127206924Y-83372095D01*
X127612152Y-83372095D01*
X127809750Y-83372095D01*
X127840340Y-83372121D01*
X127894916Y-83372307D01*
X127942655Y-83372648D01*
X127980954Y-83373115D01*
X128007213Y-83373681D01*
X128018830Y-83374318D01*
X128025050Y-83374705D01*
X128046968Y-83375067D01*
X128081879Y-83375192D01*
X128127266Y-83375082D01*
X128180610Y-83374739D01*
X128239392Y-83374165D01*
X128448472Y-83371788D01*
X128448472Y-82949623D01*
X127612152Y-82949623D01*
X127612152Y-83372095D01*
X127206924Y-83372095D01*
X127206924Y-82949623D01*
X126793075Y-82949623D01*
X126793075Y-82544396D01*
X127206924Y-82544396D01*
X127612152Y-82544396D01*
X128034623Y-82544396D01*
X128034623Y-82121925D01*
X127612152Y-82121925D01*
X127612152Y-82544396D01*
X127206924Y-82544396D01*
X127206924Y-82121925D01*
X126370604Y-82121925D01*
X126370604Y-82535774D01*
X125551527Y-82535774D01*
X125551527Y-82130547D01*
X125965377Y-82130547D01*
X125965377Y-81716697D01*
X126379226Y-81716697D01*
X126379226Y-80888681D01*
X126579684Y-80890995D01*
X126780142Y-80893310D01*
X126782454Y-81097923D01*
X126784765Y-81302537D01*
X126989378Y-81304848D01*
X127193992Y-81307159D01*
X127196303Y-81511928D01*
X127198615Y-81716697D01*
X127403228Y-81716952D01*
X127432615Y-81717000D01*
X127494046Y-81717143D01*
X127567993Y-81717356D01*
X127651490Y-81717629D01*
X127741573Y-81717950D01*
X127835277Y-81718311D01*
X127929638Y-81718700D01*
X128021690Y-81719107D01*
X128435540Y-81721008D01*
X128437341Y-81927933D01*
X128437357Y-81929848D01*
X128437939Y-82005467D01*
X128438480Y-82091037D01*
X128438943Y-82179760D01*
X128439294Y-82264838D01*
X128439496Y-82339471D01*
X128439850Y-82544084D01*
X128467495Y-82544396D01*
X128644620Y-82546395D01*
X128849389Y-82548707D01*
X128851700Y-82753476D01*
X128854012Y-82958245D01*
X129058625Y-82958600D01*
X129060519Y-82958603D01*
X129135539Y-82958810D01*
X129220811Y-82959164D01*
X129309539Y-82959630D01*
X129394922Y-82960172D01*
X129470163Y-82960755D01*
X129677087Y-82962556D01*
X129679402Y-83163014D01*
X129681716Y-83363473D01*
X128853700Y-83363473D01*
X128853700Y-83777322D01*
X128439850Y-83777322D01*
X128439850Y-84199793D01*
X128862322Y-84199793D01*
X128862322Y-83785988D01*
X129480940Y-83786208D01*
X129531292Y-83786225D01*
X129640176Y-83786255D01*
X129748215Y-83786276D01*
X129853358Y-83786289D01*
X129953558Y-83786293D01*
X130046762Y-83786288D01*
X130130922Y-83786275D01*
X130203988Y-83786254D01*
X130263911Y-83786224D01*
X130308639Y-83786186D01*
X130517719Y-83785944D01*
X130517719Y-83372095D01*
X130922946Y-83372095D01*
X131345417Y-83372095D01*
X131345417Y-82949623D01*
X130922946Y-82949623D01*
X130922946Y-83372095D01*
X130517719Y-83372095D01*
X130517719Y-82949623D01*
X130103869Y-82949623D01*
X130103869Y-82130229D01*
X130304328Y-82132543D01*
X130504786Y-82134858D01*
X130509408Y-82543800D01*
X130718332Y-82546254D01*
X130721562Y-82546291D01*
X130797989Y-82546919D01*
X130884509Y-82547230D01*
X130974292Y-82547224D01*
X131060511Y-82546900D01*
X131136337Y-82546258D01*
X131345417Y-82543809D01*
X131345417Y-82130229D01*
X131545876Y-82132543D01*
X131746334Y-82134858D01*
X131748274Y-82755632D01*
X131748438Y-82808803D01*
X131748767Y-82917630D01*
X131749080Y-83025437D01*
X131749374Y-83130197D01*
X131749643Y-83229879D01*
X131749882Y-83322458D01*
X131750003Y-83372095D01*
X131750085Y-83405905D01*
X131750248Y-83478192D01*
X131750364Y-83537291D01*
X131750429Y-83581175D01*
X131750645Y-83785944D01*
X132173116Y-83785944D01*
X132173116Y-80880377D01*
X131750645Y-80880377D01*
X131750645Y-81294226D01*
X131336795Y-81294226D01*
X131336370Y-81503306D01*
X131336362Y-81507488D01*
X131336277Y-81583681D01*
X131336282Y-81669448D01*
X131336371Y-81758087D01*
X131336537Y-81842891D01*
X131336775Y-81917156D01*
X131337604Y-82121925D01*
X130931568Y-82121925D01*
X130931568Y-81708076D01*
X130517719Y-81708076D01*
X130517719Y-80474832D01*
X130918635Y-80479460D01*
X130920947Y-80684230D01*
X130923258Y-80888999D01*
X131345417Y-80888999D01*
X131345417Y-80475150D01*
X131750645Y-80475150D01*
X132173116Y-80475150D01*
X132173116Y-80052678D01*
X131750645Y-80052678D01*
X131750645Y-80475150D01*
X131345417Y-80475150D01*
X131345417Y-80052678D01*
X129267549Y-80052678D01*
X129267549Y-80475150D01*
X129472318Y-80475504D01*
X129474177Y-80475507D01*
X129549247Y-80475714D01*
X129634569Y-80476068D01*
X129723339Y-80476534D01*
X129808755Y-80477077D01*
X129884012Y-80477659D01*
X130090937Y-80479460D01*
X130093251Y-80679919D01*
X130095565Y-80880377D01*
X129267549Y-80880377D01*
X129267549Y-81294226D01*
X128448472Y-81294226D01*
X128448472Y-80888999D01*
X128862322Y-80888999D01*
X128862322Y-80466528D01*
X128448472Y-80466528D01*
X128448472Y-80061300D01*
X128862322Y-80061300D01*
X128862322Y-79638829D01*
X129276171Y-79638829D01*
X132173116Y-79638829D01*
X132173116Y-76741884D01*
X129276171Y-76741884D01*
X129276171Y-79638829D01*
X128862322Y-79638829D01*
X128862322Y-77569583D01*
X128439850Y-77569583D01*
X128439850Y-77983432D01*
X128034623Y-77983432D01*
X128034623Y-77569583D01*
X127206924Y-77569583D01*
X127206924Y-77163546D01*
X127411694Y-77164376D01*
X127415791Y-77164393D01*
X127490889Y-77164626D01*
X127576119Y-77164788D01*
X127664774Y-77164872D01*
X127750150Y-77164872D01*
X127825543Y-77164781D01*
X128034623Y-77164355D01*
X128034623Y-76741884D01*
X126784453Y-76741884D01*
X126784453Y-77155733D01*
X126370604Y-77155733D01*
X126370604Y-77569583D01*
X125965377Y-77569583D01*
X125965377Y-77155733D01*
X125551527Y-77155733D01*
X125551527Y-76741884D01*
X125129056Y-76741884D01*
X125129056Y-77164043D01*
X125333825Y-77166355D01*
X125538595Y-77168666D01*
X125540909Y-77369124D01*
X125543223Y-77569583D01*
X125129056Y-77569583D01*
X125129056Y-77992054D01*
X125551527Y-77992054D01*
X125551527Y-77577887D01*
X125751986Y-77580201D01*
X125952444Y-77582515D01*
X125954245Y-77789440D01*
X125954262Y-77791355D01*
X125954844Y-77866974D01*
X125955384Y-77952544D01*
X125955847Y-78041267D01*
X125956198Y-78126345D01*
X125956400Y-78200978D01*
X125956755Y-78405591D01*
X126161524Y-78407903D01*
X126366293Y-78410214D01*
X126368607Y-78610672D01*
X126370922Y-78811131D01*
X125129643Y-78811131D01*
X125127194Y-79020211D01*
X125127157Y-79023406D01*
X125126530Y-79099883D01*
X125126221Y-79186452D01*
X125126230Y-79276277D01*
X125126556Y-79362528D01*
X125127199Y-79438371D01*
X125129552Y-79638829D01*
X125129653Y-79647451D01*
X125551527Y-79647451D01*
X125551527Y-79233284D01*
X125751986Y-79235598D01*
X125952444Y-79237913D01*
X125954549Y-79645295D01*
X125956654Y-80052678D01*
X125129056Y-80052678D01*
X125128631Y-80261758D01*
X125128623Y-80265940D01*
X125128537Y-80342133D01*
X125128542Y-80427901D01*
X125128631Y-80516539D01*
X125128798Y-80601343D01*
X125129035Y-80675608D01*
X125129865Y-80880377D01*
X124309979Y-80880377D01*
X124309979Y-80475150D01*
X124723829Y-80475150D01*
X124723829Y-80052678D01*
X122645960Y-80052678D01*
X122645960Y-80466528D01*
X122232111Y-80466528D01*
X122232111Y-80880377D01*
X121818262Y-80880377D01*
X121818027Y-81087302D01*
X121818015Y-81097615D01*
X121817944Y-81173480D01*
X121817883Y-81259113D01*
X121817835Y-81348030D01*
X121817803Y-81433745D01*
X121817792Y-81509773D01*
X121817792Y-81521531D01*
X121817807Y-81599104D01*
X121817841Y-81684875D01*
X121817892Y-81772485D01*
X121817955Y-81855573D01*
X121818027Y-81927777D01*
X121818262Y-82130235D01*
X122023031Y-82132546D01*
X122227800Y-82134858D01*
X122230115Y-82335316D01*
X122232429Y-82535774D01*
X121818849Y-82535774D01*
X121816400Y-82744854D01*
X121816363Y-82748049D01*
X121815736Y-82824527D01*
X121815427Y-82911095D01*
X120999185Y-82911095D01*
X120999185Y-79638829D01*
X121826884Y-79638829D01*
X124723829Y-79638829D01*
X124723829Y-76741884D01*
X121826884Y-76741884D01*
X121826884Y-79638829D01*
X120999185Y-79638829D01*
X120999185Y-75914186D01*
X133000814Y-75914186D01*
X133000814Y-87915815D01*
X120999185Y-87915815D01*
G37*
G36*
X126366293Y-86273350D02*
G01*
X126368607Y-86473809D01*
X126370922Y-86674267D01*
X125965377Y-86674267D01*
X125965377Y-86268722D01*
X126366293Y-86273350D01*
G37*
G36*
X122441191Y-85857187D02*
G01*
X122641650Y-85859501D01*
X122643961Y-86064115D01*
X122646272Y-86268728D01*
X122850885Y-86271039D01*
X123055499Y-86273350D01*
X123057813Y-86473809D01*
X123060128Y-86674267D01*
X122240733Y-86674267D01*
X122240733Y-85854872D01*
X122441191Y-85857187D01*
G37*
G36*
X124510438Y-85857187D02*
G01*
X124710896Y-85859501D01*
X124713210Y-86059959D01*
X124715525Y-86260418D01*
X124309979Y-86260418D01*
X124309979Y-85854872D01*
X124510438Y-85857187D01*
G37*
G36*
X123268890Y-85443338D02*
G01*
X123469348Y-85445652D01*
X123471659Y-85650265D01*
X123473970Y-85854879D01*
X123678584Y-85857190D01*
X123883197Y-85859501D01*
X123885512Y-86059959D01*
X123887826Y-86260418D01*
X123068432Y-86260418D01*
X123068432Y-85441023D01*
X123268890Y-85443338D01*
G37*
G36*
X125952444Y-85445652D02*
G01*
X125954758Y-85646110D01*
X125957073Y-85846568D01*
X125137678Y-85846568D01*
X125137678Y-85441442D01*
X125952444Y-85445652D01*
G37*
G36*
X124096588Y-85443338D02*
G01*
X124297047Y-85445652D01*
X124301675Y-85846568D01*
X123896130Y-85846568D01*
X123896130Y-85441023D01*
X124096588Y-85443338D01*
G37*
G36*
X127821232Y-85029488D02*
G01*
X128021690Y-85031803D01*
X128024005Y-85232261D01*
X128026319Y-85432719D01*
X127620774Y-85432719D01*
X127620774Y-85027174D01*
X127821232Y-85029488D01*
G37*
G36*
X123896130Y-85018870D02*
G01*
X123896130Y-84613642D01*
X124301358Y-84613642D01*
X124723829Y-84613642D01*
X124723829Y-84191171D01*
X124301358Y-84191171D01*
X124301358Y-84613642D01*
X123896130Y-84613642D01*
X123896130Y-83786186D01*
X124510438Y-83788220D01*
X125124745Y-83790255D01*
X125126780Y-84404562D01*
X125127472Y-84613642D01*
X125128814Y-85018870D01*
X123896130Y-85018870D01*
G37*
G36*
X122648116Y-84615848D02*
G01*
X123055499Y-84617953D01*
X123057813Y-84818412D01*
X123060128Y-85018870D01*
X122240733Y-85018870D01*
X122240733Y-84613744D01*
X122648116Y-84615848D01*
G37*
G36*
X123469348Y-83376405D02*
G01*
X123471662Y-83576864D01*
X123473977Y-83777322D01*
X123068432Y-83777322D01*
X123068432Y-83371777D01*
X123469348Y-83376405D01*
G37*
G36*
X125751986Y-82960522D02*
G01*
X126366293Y-82962556D01*
X126368607Y-83163014D01*
X126370922Y-83363473D01*
X125137678Y-83363473D01*
X125137678Y-82958487D01*
X125751986Y-82960522D01*
G37*
G36*
X124096588Y-82546393D02*
G01*
X124297047Y-82548707D01*
X124299152Y-82956090D01*
X124301256Y-83363473D01*
X123896130Y-83363473D01*
X123896130Y-82544078D01*
X124096588Y-82546393D01*
G37*
G36*
X129269705Y-82132753D02*
G01*
X129677087Y-82134858D01*
X129679402Y-82335316D01*
X129681716Y-82535774D01*
X128862322Y-82535774D01*
X128862322Y-82130648D01*
X129269705Y-82132753D01*
G37*
G36*
X125124745Y-82134858D02*
G01*
X125127060Y-82335316D01*
X125129374Y-82535774D01*
X124309979Y-82535774D01*
X124309979Y-82130648D01*
X125124745Y-82134858D01*
G37*
G36*
X123682739Y-82132543D02*
G01*
X123883197Y-82134858D01*
X123885512Y-82335316D01*
X123887826Y-82535774D01*
X123482281Y-82535774D01*
X123482281Y-82130229D01*
X123682739Y-82132543D01*
G37*
G36*
X125338136Y-81718694D02*
G01*
X125538595Y-81721008D01*
X125540909Y-81921467D01*
X125543223Y-82121925D01*
X125137678Y-82121925D01*
X125137678Y-81716380D01*
X125338136Y-81718694D01*
G37*
G36*
X123268890Y-80477426D02*
G01*
X123883197Y-80479460D01*
X123885512Y-80679919D01*
X123887826Y-80880377D01*
X123059810Y-80880377D01*
X123059810Y-81302848D01*
X123264579Y-81303103D01*
X123293968Y-81303150D01*
X123355430Y-81303294D01*
X123429405Y-81303507D01*
X123512930Y-81303779D01*
X123603037Y-81304101D01*
X123696762Y-81304462D01*
X123791137Y-81304851D01*
X123883197Y-81305258D01*
X124297047Y-81307159D01*
X124299152Y-81714542D01*
X124301256Y-82121925D01*
X123896130Y-82121925D01*
X123896130Y-81708076D01*
X123473659Y-81708076D01*
X123473659Y-82121925D01*
X123068432Y-82121925D01*
X123068432Y-81708076D01*
X122240733Y-81708076D01*
X122240733Y-81302848D01*
X122654582Y-81302848D01*
X122654582Y-80475391D01*
X123268890Y-80477426D01*
G37*
G36*
X129476629Y-81304845D02*
G01*
X129677087Y-81307159D01*
X129679402Y-81507617D01*
X129681716Y-81708076D01*
X129276171Y-81708076D01*
X129276171Y-81302530D01*
X129476629Y-81304845D01*
G37*
G36*
X124924287Y-81304845D02*
G01*
X125124745Y-81307159D01*
X125127060Y-81507617D01*
X125129374Y-81708076D01*
X124723829Y-81708076D01*
X124723829Y-81302530D01*
X124924287Y-81304845D01*
G37*
G36*
X127821232Y-80890995D02*
G01*
X128021690Y-80893310D01*
X128024005Y-81093768D01*
X128026319Y-81294226D01*
X127620774Y-81294226D01*
X127620774Y-80888681D01*
X127821232Y-80890995D01*
G37*
G36*
X128235081Y-80477146D02*
G01*
X128435540Y-80479460D01*
X128437854Y-80679919D01*
X128440168Y-80880377D01*
X128034623Y-80880377D01*
X128034623Y-80474832D01*
X128235081Y-80477146D01*
G37*
G36*
X127407383Y-80477146D02*
G01*
X127607841Y-80479460D01*
X127610155Y-80679919D01*
X127612470Y-80880377D01*
X127206924Y-80880377D01*
X127206924Y-80474832D01*
X127407383Y-80477146D01*
G37*
G36*
X125958910Y-80477356D02*
G01*
X126366293Y-80479460D01*
X126368607Y-80679919D01*
X126370922Y-80880377D01*
X125551527Y-80880377D01*
X125551527Y-80475251D01*
X125958910Y-80477356D01*
G37*
G36*
X128235081Y-79235598D02*
G01*
X128435540Y-79237913D01*
X128437644Y-79645295D01*
X128439749Y-80052678D01*
X126379226Y-80052678D01*
X126379226Y-79233284D01*
X126579684Y-79235598D01*
X126780142Y-79237913D01*
X126782454Y-79442682D01*
X126784765Y-79647451D01*
X127206924Y-79647451D01*
X127206924Y-79233284D01*
X127407383Y-79235598D01*
X127607841Y-79237913D01*
X127610152Y-79442682D01*
X127612464Y-79647451D01*
X128034623Y-79647451D01*
X128034623Y-79233284D01*
X128235081Y-79235598D01*
G37*
G36*
X128021690Y-78824063D02*
G01*
X128024005Y-79024522D01*
X128026319Y-79224980D01*
X127620774Y-79224980D01*
X127620774Y-78819435D01*
X128021690Y-78824063D01*
G37*
G36*
X126993533Y-78821749D02*
G01*
X127193992Y-78824063D01*
X127196306Y-79024522D01*
X127198620Y-79224980D01*
X126793075Y-79224980D01*
X126793075Y-78819435D01*
X126993533Y-78821749D01*
G37*
G36*
X128235081Y-78407900D02*
G01*
X128435540Y-78410214D01*
X128437854Y-78610672D01*
X128440168Y-78811131D01*
X128034623Y-78811131D01*
X128034623Y-78405585D01*
X128235081Y-78407900D01*
G37*
G36*
X127407383Y-77994050D02*
G01*
X127607841Y-77996365D01*
X127610155Y-78196823D01*
X127612470Y-78397281D01*
X127206924Y-78397281D01*
X127206924Y-77991736D01*
X127407383Y-77994050D01*
G37*
G36*
X126780142Y-77582515D02*
G01*
X126782457Y-77782974D01*
X126784771Y-77983432D01*
X126379226Y-77983432D01*
X126379226Y-77577887D01*
X126780142Y-77582515D01*
G37*
G36*
X129690020Y-86674267D02*
G01*
X129690020Y-86260418D01*
X130103869Y-86260418D01*
X131345417Y-86260418D01*
X131345417Y-85018870D01*
X130103869Y-85018870D01*
X130103869Y-86260418D01*
X129690020Y-86260418D01*
X129690020Y-84605021D01*
X131759267Y-84605021D01*
X131759267Y-86674267D01*
X129690020Y-86674267D01*
G37*
G36*
X129690020Y-79224980D02*
G01*
X129690020Y-78811131D01*
X130103869Y-78811131D01*
X131345417Y-78811131D01*
X131345417Y-77569583D01*
X130103869Y-77569583D01*
X130103869Y-78811131D01*
X129690020Y-78811131D01*
X129690020Y-77155733D01*
X131759267Y-77155733D01*
X131759267Y-79224980D01*
X129690020Y-79224980D01*
G37*
G36*
X122240733Y-79224980D02*
G01*
X122240733Y-78811131D01*
X122654582Y-78811131D01*
X123896130Y-78811131D01*
X123896130Y-77569583D01*
X122654582Y-77569583D01*
X122654582Y-78811131D01*
X122240733Y-78811131D01*
X122240733Y-77155733D01*
X124309979Y-77155733D01*
X124309979Y-79224980D01*
X122240733Y-79224980D01*
G37*
%TD*%
M02*
