%TF.GenerationSoftware,KiCad,Pcbnew,(6.0.0-0)*%
%TF.CreationDate,2022-03-04T21:17:09-05:00*%
%TF.ProjectId,audio-jack,61756469-6f2d-46a6-9163-6b2e6b696361,rev?*%
%TF.SameCoordinates,Original*%
%TF.FileFunction,Legend,Top*%
%TF.FilePolarity,Positive*%
%FSLAX46Y46*%
G04 Gerber Fmt 4.6, Leading zero omitted, Abs format (unit mm)*
G04 Created by KiCad (PCBNEW (6.0.0-0)) date 2022-03-04 21:17:09*
%MOMM*%
%LPD*%
G01*
G04 APERTURE LIST*
%ADD10C,0.150000*%
%ADD11C,0.120000*%
G04 APERTURE END LIST*
D10*
X125023619Y-63501428D02*
X125023619Y-63025238D01*
X126023619Y-63025238D01*
X125547428Y-63834761D02*
X125547428Y-64168095D01*
X125023619Y-64310952D02*
X125023619Y-63834761D01*
X126023619Y-63834761D01*
X126023619Y-64310952D01*
X125547428Y-65072857D02*
X125547428Y-64739523D01*
X125023619Y-64739523D02*
X126023619Y-64739523D01*
X126023619Y-65215714D01*
X126023619Y-65453809D02*
X126023619Y-66025238D01*
X125023619Y-65739523D02*
X126023619Y-65739523D01*
X126023619Y-67406190D02*
X125309333Y-67406190D01*
X125166476Y-67358571D01*
X125071238Y-67263333D01*
X125023619Y-67120476D01*
X125023619Y-67025238D01*
X125309333Y-67834761D02*
X125309333Y-68310952D01*
X125023619Y-67739523D02*
X126023619Y-68072857D01*
X125023619Y-68406190D01*
X125118857Y-69310952D02*
X125071238Y-69263333D01*
X125023619Y-69120476D01*
X125023619Y-69025238D01*
X125071238Y-68882380D01*
X125166476Y-68787142D01*
X125261714Y-68739523D01*
X125452190Y-68691904D01*
X125595047Y-68691904D01*
X125785523Y-68739523D01*
X125880761Y-68787142D01*
X125976000Y-68882380D01*
X126023619Y-69025238D01*
X126023619Y-69120476D01*
X125976000Y-69263333D01*
X125928380Y-69310952D01*
X125023619Y-69739523D02*
X126023619Y-69739523D01*
X125023619Y-70310952D02*
X125595047Y-69882380D01*
X126023619Y-70310952D02*
X125452190Y-69739523D01*
X125404571Y-71501428D02*
X125404571Y-72263333D01*
X125023619Y-73501428D02*
X126023619Y-73501428D01*
X125023619Y-73977619D02*
X126023619Y-73977619D01*
X125023619Y-74549047D01*
X126023619Y-74549047D01*
X125071238Y-74977619D02*
X125023619Y-75120476D01*
X125023619Y-75358571D01*
X125071238Y-75453809D01*
X125118857Y-75501428D01*
X125214095Y-75549047D01*
X125309333Y-75549047D01*
X125404571Y-75501428D01*
X125452190Y-75453809D01*
X125499809Y-75358571D01*
X125547428Y-75168095D01*
X125595047Y-75072857D01*
X125642666Y-75025238D01*
X125737904Y-74977619D01*
X125833142Y-74977619D01*
X125928380Y-75025238D01*
X125976000Y-75072857D01*
X126023619Y-75168095D01*
X126023619Y-75406190D01*
X125976000Y-75549047D01*
X126023619Y-75834761D02*
X126023619Y-76406190D01*
X125023619Y-76120476D02*
X126023619Y-76120476D01*
X125309333Y-76691904D02*
X125309333Y-77168095D01*
X125023619Y-76596666D02*
X126023619Y-76930000D01*
X125023619Y-77263333D01*
X125023619Y-78072857D02*
X125023619Y-77596666D01*
X126023619Y-77596666D01*
X125023619Y-78882380D02*
X125023619Y-78406190D01*
X126023619Y-78406190D01*
X126023619Y-79834761D02*
X126023619Y-80406190D01*
X125023619Y-80120476D02*
X126023619Y-80120476D01*
X125023619Y-80739523D02*
X126023619Y-80739523D01*
X125547428Y-80739523D02*
X125547428Y-81310952D01*
X125023619Y-81310952D02*
X126023619Y-81310952D01*
X125023619Y-81787142D02*
X126023619Y-81787142D01*
X125071238Y-82215714D02*
X125023619Y-82358571D01*
X125023619Y-82596666D01*
X125071238Y-82691904D01*
X125118857Y-82739523D01*
X125214095Y-82787142D01*
X125309333Y-82787142D01*
X125404571Y-82739523D01*
X125452190Y-82691904D01*
X125499809Y-82596666D01*
X125547428Y-82406190D01*
X125595047Y-82310952D01*
X125642666Y-82263333D01*
X125737904Y-82215714D01*
X125833142Y-82215714D01*
X125928380Y-82263333D01*
X125976000Y-82310952D01*
X126023619Y-82406190D01*
X126023619Y-82644285D01*
X125976000Y-82787142D01*
X125071238Y-83930000D02*
X125023619Y-84072857D01*
X125023619Y-84310952D01*
X125071238Y-84406190D01*
X125118857Y-84453809D01*
X125214095Y-84501428D01*
X125309333Y-84501428D01*
X125404571Y-84453809D01*
X125452190Y-84406190D01*
X125499809Y-84310952D01*
X125547428Y-84120476D01*
X125595047Y-84025238D01*
X125642666Y-83977619D01*
X125737904Y-83930000D01*
X125833142Y-83930000D01*
X125928380Y-83977619D01*
X125976000Y-84025238D01*
X126023619Y-84120476D01*
X126023619Y-84358571D01*
X125976000Y-84501428D01*
X125023619Y-84930000D02*
X126023619Y-84930000D01*
X125023619Y-85406190D02*
X126023619Y-85406190D01*
X126023619Y-85644285D01*
X125976000Y-85787142D01*
X125880761Y-85882380D01*
X125785523Y-85930000D01*
X125595047Y-85977619D01*
X125452190Y-85977619D01*
X125261714Y-85930000D01*
X125166476Y-85882380D01*
X125071238Y-85787142D01*
X125023619Y-85644285D01*
X125023619Y-85406190D01*
X125547428Y-86406190D02*
X125547428Y-86739523D01*
X125023619Y-86882380D02*
X125023619Y-86406190D01*
X126023619Y-86406190D01*
X126023619Y-86882380D01*
X150114000Y-79375000D02*
X150368000Y-79121000D01*
X150114000Y-83058000D02*
X150114000Y-79375000D01*
X129921000Y-83058000D02*
X129413000Y-83058000D01*
X150876000Y-84455000D02*
X150876000Y-83058000D01*
X129413000Y-79375000D02*
X129667000Y-79121000D01*
X150368000Y-84455000D02*
X150368000Y-86487000D01*
X129413000Y-80264000D02*
X129921000Y-80264000D01*
X129413000Y-81534000D02*
X129921000Y-81534000D01*
X130175000Y-83058000D02*
X129921000Y-83058000D01*
X150114000Y-80264000D02*
X150622000Y-80264000D01*
X129159000Y-83058000D02*
X129159000Y-84455000D01*
X129667000Y-84455000D02*
X129667000Y-86487000D01*
X150114000Y-81534000D02*
X150622000Y-81534000D01*
X149860000Y-84455000D02*
X150876000Y-84455000D01*
X129413000Y-83058000D02*
X129159000Y-83058000D01*
X150368000Y-79121000D02*
X150622000Y-79375000D01*
X130175000Y-84455000D02*
X130175000Y-83058000D01*
X129413000Y-83058000D02*
X129413000Y-79375000D01*
X150114000Y-83058000D02*
X149860000Y-83058000D01*
X129159000Y-84455000D02*
X130175000Y-84455000D01*
X129921000Y-79375000D02*
X129921000Y-83058000D01*
X150876000Y-83058000D02*
X150622000Y-83058000D01*
X149860000Y-83058000D02*
X149860000Y-84455000D01*
X150622000Y-79375000D02*
X150622000Y-83058000D01*
X129667000Y-79121000D02*
X129921000Y-79375000D01*
X150622000Y-83058000D02*
X150114000Y-83058000D01*
X121237476Y-83335761D02*
X121380333Y-83383380D01*
X121618428Y-83383380D01*
X121713666Y-83335761D01*
X121761285Y-83288142D01*
X121808904Y-83192904D01*
X121808904Y-83097666D01*
X121761285Y-83002428D01*
X121713666Y-82954809D01*
X121618428Y-82907190D01*
X121427952Y-82859571D01*
X121332714Y-82811952D01*
X121285095Y-82764333D01*
X121237476Y-82669095D01*
X121237476Y-82573857D01*
X121285095Y-82478619D01*
X121332714Y-82431000D01*
X121427952Y-82383380D01*
X121666047Y-82383380D01*
X121808904Y-82431000D01*
X122237476Y-83383380D02*
X122237476Y-82383380D01*
X122808904Y-83383380D01*
X122808904Y-82383380D01*
X128238285Y-79081380D02*
X128809714Y-79081380D01*
X128524000Y-80081380D02*
X128524000Y-79081380D01*
X142025714Y-76906380D02*
X141692380Y-76430190D01*
X141454285Y-76906380D02*
X141454285Y-75906380D01*
X141835238Y-75906380D01*
X141930476Y-75954000D01*
X141978095Y-76001619D01*
X142025714Y-76096857D01*
X142025714Y-76239714D01*
X141978095Y-76334952D01*
X141930476Y-76382571D01*
X141835238Y-76430190D01*
X141454285Y-76430190D01*
X142454285Y-76906380D02*
X142454285Y-75906380D01*
X143025714Y-76906380D01*
X143025714Y-75906380D01*
X121237476Y-69683380D02*
X121808904Y-69683380D01*
X121523190Y-70683380D02*
X121523190Y-69683380D01*
X122142238Y-70683380D02*
X122142238Y-69683380D01*
X122713666Y-70683380D01*
X122713666Y-69683380D01*
X121832714Y-77033380D02*
X121499380Y-76557190D01*
X121261285Y-77033380D02*
X121261285Y-76033380D01*
X121642238Y-76033380D01*
X121737476Y-76081000D01*
X121785095Y-76128619D01*
X121832714Y-76223857D01*
X121832714Y-76366714D01*
X121785095Y-76461952D01*
X121737476Y-76509571D01*
X121642238Y-76557190D01*
X121261285Y-76557190D01*
X122261285Y-77033380D02*
X122261285Y-76033380D01*
X122832714Y-77033380D01*
X122832714Y-76033380D01*
X131921285Y-69810380D02*
X132492714Y-69810380D01*
X132207000Y-70810380D02*
X132207000Y-69810380D01*
X145216619Y-63247476D02*
X145692809Y-62914142D01*
X145216619Y-62676047D02*
X146216619Y-62676047D01*
X146216619Y-63057000D01*
X146169000Y-63152238D01*
X146121380Y-63199857D01*
X146026142Y-63247476D01*
X145883285Y-63247476D01*
X145788047Y-63199857D01*
X145740428Y-63152238D01*
X145692809Y-63057000D01*
X145692809Y-62676047D01*
X145216619Y-63676047D02*
X146216619Y-63676047D01*
X146169000Y-64676047D02*
X146216619Y-64580809D01*
X146216619Y-64437952D01*
X146169000Y-64295095D01*
X146073761Y-64199857D01*
X145978523Y-64152238D01*
X145788047Y-64104619D01*
X145645190Y-64104619D01*
X145454714Y-64152238D01*
X145359476Y-64199857D01*
X145264238Y-64295095D01*
X145216619Y-64437952D01*
X145216619Y-64533190D01*
X145264238Y-64676047D01*
X145311857Y-64723666D01*
X145645190Y-64723666D01*
X145645190Y-64533190D01*
X145216619Y-65152238D02*
X146216619Y-65152238D01*
X145740428Y-65152238D02*
X145740428Y-65723666D01*
X145216619Y-65723666D02*
X146216619Y-65723666D01*
X146216619Y-66057000D02*
X146216619Y-66628428D01*
X145216619Y-66342714D02*
X146216619Y-66342714D01*
X146216619Y-68009380D02*
X145502333Y-68009380D01*
X145359476Y-67961761D01*
X145264238Y-67866523D01*
X145216619Y-67723666D01*
X145216619Y-67628428D01*
X145502333Y-68437952D02*
X145502333Y-68914142D01*
X145216619Y-68342714D02*
X146216619Y-68676047D01*
X145216619Y-69009380D01*
X145311857Y-69914142D02*
X145264238Y-69866523D01*
X145216619Y-69723666D01*
X145216619Y-69628428D01*
X145264238Y-69485571D01*
X145359476Y-69390333D01*
X145454714Y-69342714D01*
X145645190Y-69295095D01*
X145788047Y-69295095D01*
X145978523Y-69342714D01*
X146073761Y-69390333D01*
X146169000Y-69485571D01*
X146216619Y-69628428D01*
X146216619Y-69723666D01*
X146169000Y-69866523D01*
X146121380Y-69914142D01*
X145216619Y-70342714D02*
X146216619Y-70342714D01*
X145216619Y-70914142D02*
X145788047Y-70485571D01*
X146216619Y-70914142D02*
X145645190Y-70342714D01*
X145597571Y-72104619D02*
X145597571Y-72866523D01*
X145216619Y-74104619D02*
X146216619Y-74104619D01*
X145216619Y-74580809D02*
X146216619Y-74580809D01*
X145216619Y-75152238D01*
X146216619Y-75152238D01*
X145264238Y-75580809D02*
X145216619Y-75723666D01*
X145216619Y-75961761D01*
X145264238Y-76057000D01*
X145311857Y-76104619D01*
X145407095Y-76152238D01*
X145502333Y-76152238D01*
X145597571Y-76104619D01*
X145645190Y-76057000D01*
X145692809Y-75961761D01*
X145740428Y-75771285D01*
X145788047Y-75676047D01*
X145835666Y-75628428D01*
X145930904Y-75580809D01*
X146026142Y-75580809D01*
X146121380Y-75628428D01*
X146169000Y-75676047D01*
X146216619Y-75771285D01*
X146216619Y-76009380D01*
X146169000Y-76152238D01*
X146216619Y-76437952D02*
X146216619Y-77009380D01*
X145216619Y-76723666D02*
X146216619Y-76723666D01*
X145502333Y-77295095D02*
X145502333Y-77771285D01*
X145216619Y-77199857D02*
X146216619Y-77533190D01*
X145216619Y-77866523D01*
X145216619Y-78676047D02*
X145216619Y-78199857D01*
X146216619Y-78199857D01*
X145216619Y-79485571D02*
X145216619Y-79009380D01*
X146216619Y-79009380D01*
X146216619Y-80437952D02*
X146216619Y-81009380D01*
X145216619Y-80723666D02*
X146216619Y-80723666D01*
X145216619Y-81342714D02*
X146216619Y-81342714D01*
X145740428Y-81342714D02*
X145740428Y-81914142D01*
X145216619Y-81914142D02*
X146216619Y-81914142D01*
X145216619Y-82390333D02*
X146216619Y-82390333D01*
X145264238Y-82818904D02*
X145216619Y-82961761D01*
X145216619Y-83199857D01*
X145264238Y-83295095D01*
X145311857Y-83342714D01*
X145407095Y-83390333D01*
X145502333Y-83390333D01*
X145597571Y-83342714D01*
X145645190Y-83295095D01*
X145692809Y-83199857D01*
X145740428Y-83009380D01*
X145788047Y-82914142D01*
X145835666Y-82866523D01*
X145930904Y-82818904D01*
X146026142Y-82818904D01*
X146121380Y-82866523D01*
X146169000Y-82914142D01*
X146216619Y-83009380D01*
X146216619Y-83247476D01*
X146169000Y-83390333D01*
X145264238Y-84533190D02*
X145216619Y-84676047D01*
X145216619Y-84914142D01*
X145264238Y-85009380D01*
X145311857Y-85057000D01*
X145407095Y-85104619D01*
X145502333Y-85104619D01*
X145597571Y-85057000D01*
X145645190Y-85009380D01*
X145692809Y-84914142D01*
X145740428Y-84723666D01*
X145788047Y-84628428D01*
X145835666Y-84580809D01*
X145930904Y-84533190D01*
X146026142Y-84533190D01*
X146121380Y-84580809D01*
X146169000Y-84628428D01*
X146216619Y-84723666D01*
X146216619Y-84961761D01*
X146169000Y-85104619D01*
X145216619Y-85533190D02*
X146216619Y-85533190D01*
X145216619Y-86009380D02*
X146216619Y-86009380D01*
X146216619Y-86247476D01*
X146169000Y-86390333D01*
X146073761Y-86485571D01*
X145978523Y-86533190D01*
X145788047Y-86580809D01*
X145645190Y-86580809D01*
X145454714Y-86533190D01*
X145359476Y-86485571D01*
X145264238Y-86390333D01*
X145216619Y-86247476D01*
X145216619Y-86009380D01*
X145740428Y-87009380D02*
X145740428Y-87342714D01*
X145216619Y-87485571D02*
X145216619Y-87009380D01*
X146216619Y-87009380D01*
X146216619Y-87485571D01*
X152963523Y-77033380D02*
X152630190Y-76557190D01*
X152392095Y-77033380D02*
X152392095Y-76033380D01*
X152773047Y-76033380D01*
X152868285Y-76081000D01*
X152915904Y-76128619D01*
X152963523Y-76223857D01*
X152963523Y-76366714D01*
X152915904Y-76461952D01*
X152868285Y-76509571D01*
X152773047Y-76557190D01*
X152392095Y-76557190D01*
X148939285Y-82827761D02*
X149082142Y-82875380D01*
X149320238Y-82875380D01*
X149415476Y-82827761D01*
X149463095Y-82780142D01*
X149510714Y-82684904D01*
X149510714Y-82589666D01*
X149463095Y-82494428D01*
X149415476Y-82446809D01*
X149320238Y-82399190D01*
X149129761Y-82351571D01*
X149034523Y-82303952D01*
X148986904Y-82256333D01*
X148939285Y-82161095D01*
X148939285Y-82065857D01*
X148986904Y-81970619D01*
X149034523Y-81923000D01*
X149129761Y-81875380D01*
X149367857Y-81875380D01*
X149510714Y-81923000D01*
X141430476Y-69683380D02*
X142001904Y-69683380D01*
X141716190Y-70683380D02*
X141716190Y-69683380D01*
X142335238Y-70683380D02*
X142335238Y-69683380D01*
X142906666Y-70683380D01*
X142906666Y-69683380D01*
X152368285Y-69810380D02*
X152939714Y-69810380D01*
X152654000Y-70810380D02*
X152654000Y-69810380D01*
X152368285Y-83335761D02*
X152511142Y-83383380D01*
X152749238Y-83383380D01*
X152844476Y-83335761D01*
X152892095Y-83288142D01*
X152939714Y-83192904D01*
X152939714Y-83097666D01*
X152892095Y-83002428D01*
X152844476Y-82954809D01*
X152749238Y-82907190D01*
X152558761Y-82859571D01*
X152463523Y-82811952D01*
X152415904Y-82764333D01*
X152368285Y-82669095D01*
X152368285Y-82573857D01*
X152415904Y-82478619D01*
X152463523Y-82431000D01*
X152558761Y-82383380D01*
X152796857Y-82383380D01*
X152939714Y-82431000D01*
X131921285Y-83335761D02*
X132064142Y-83383380D01*
X132302238Y-83383380D01*
X132397476Y-83335761D01*
X132445095Y-83288142D01*
X132492714Y-83192904D01*
X132492714Y-83097666D01*
X132445095Y-83002428D01*
X132397476Y-82954809D01*
X132302238Y-82907190D01*
X132111761Y-82859571D01*
X132016523Y-82811952D01*
X131968904Y-82764333D01*
X131921285Y-82669095D01*
X131921285Y-82573857D01*
X131968904Y-82478619D01*
X132016523Y-82431000D01*
X132111761Y-82383380D01*
X132349857Y-82383380D01*
X132492714Y-82431000D01*
X141430476Y-83208761D02*
X141573333Y-83256380D01*
X141811428Y-83256380D01*
X141906666Y-83208761D01*
X141954285Y-83161142D01*
X142001904Y-83065904D01*
X142001904Y-82970666D01*
X141954285Y-82875428D01*
X141906666Y-82827809D01*
X141811428Y-82780190D01*
X141620952Y-82732571D01*
X141525714Y-82684952D01*
X141478095Y-82637333D01*
X141430476Y-82542095D01*
X141430476Y-82446857D01*
X141478095Y-82351619D01*
X141525714Y-82304000D01*
X141620952Y-82256380D01*
X141859047Y-82256380D01*
X142001904Y-82304000D01*
X142430476Y-83256380D02*
X142430476Y-82256380D01*
X143001904Y-83256380D01*
X143001904Y-82256380D01*
X132516523Y-77033380D02*
X132183190Y-76557190D01*
X131945095Y-77033380D02*
X131945095Y-76033380D01*
X132326047Y-76033380D01*
X132421285Y-76081000D01*
X132468904Y-76128619D01*
X132516523Y-76223857D01*
X132516523Y-76366714D01*
X132468904Y-76461952D01*
X132421285Y-76509571D01*
X132326047Y-76557190D01*
X131945095Y-76557190D01*
X148939285Y-79081380D02*
X149510714Y-79081380D01*
X149225000Y-80081380D02*
X149225000Y-79081380D01*
X149534523Y-81478380D02*
X149201190Y-81002190D01*
X148963095Y-81478380D02*
X148963095Y-80478380D01*
X149344047Y-80478380D01*
X149439285Y-80526000D01*
X149486904Y-80573619D01*
X149534523Y-80668857D01*
X149534523Y-80811714D01*
X149486904Y-80906952D01*
X149439285Y-80954571D01*
X149344047Y-81002190D01*
X148963095Y-81002190D01*
X128238285Y-82827761D02*
X128381142Y-82875380D01*
X128619238Y-82875380D01*
X128714476Y-82827761D01*
X128762095Y-82780142D01*
X128809714Y-82684904D01*
X128809714Y-82589666D01*
X128762095Y-82494428D01*
X128714476Y-82446809D01*
X128619238Y-82399190D01*
X128428761Y-82351571D01*
X128333523Y-82303952D01*
X128285904Y-82256333D01*
X128238285Y-82161095D01*
X128238285Y-82065857D01*
X128285904Y-81970619D01*
X128333523Y-81923000D01*
X128428761Y-81875380D01*
X128666857Y-81875380D01*
X128809714Y-81923000D01*
X128833523Y-81478380D02*
X128500190Y-81002190D01*
X128262095Y-81478380D02*
X128262095Y-80478380D01*
X128643047Y-80478380D01*
X128738285Y-80526000D01*
X128785904Y-80573619D01*
X128833523Y-80668857D01*
X128833523Y-80811714D01*
X128785904Y-80906952D01*
X128738285Y-80954571D01*
X128643047Y-81002190D01*
X128262095Y-81002190D01*
%TO.C,J1*%
X134453380Y-67516333D02*
X135167666Y-67516333D01*
X135310523Y-67563952D01*
X135405761Y-67659190D01*
X135453380Y-67802047D01*
X135453380Y-67897285D01*
X135453380Y-66516333D02*
X135453380Y-67087761D01*
X135453380Y-66802047D02*
X134453380Y-66802047D01*
X134596238Y-66897285D01*
X134691476Y-66992523D01*
X134739095Y-67087761D01*
%TO.C,J5*%
X153209666Y-61682380D02*
X153209666Y-62396666D01*
X153162047Y-62539523D01*
X153066809Y-62634761D01*
X152923952Y-62682380D01*
X152828714Y-62682380D01*
X154162047Y-61682380D02*
X153685857Y-61682380D01*
X153638238Y-62158571D01*
X153685857Y-62110952D01*
X153781095Y-62063333D01*
X154019190Y-62063333D01*
X154114428Y-62110952D01*
X154162047Y-62158571D01*
X154209666Y-62253809D01*
X154209666Y-62491904D01*
X154162047Y-62587142D01*
X154114428Y-62634761D01*
X154019190Y-62682380D01*
X153781095Y-62682380D01*
X153685857Y-62634761D01*
X153638238Y-62587142D01*
%TO.C,JP3*%
X140557333Y-60648904D02*
X140557333Y-61220333D01*
X140519238Y-61334619D01*
X140443047Y-61410809D01*
X140328761Y-61448904D01*
X140252571Y-61448904D01*
X140938285Y-61448904D02*
X140938285Y-60648904D01*
X141243047Y-60648904D01*
X141319238Y-60687000D01*
X141357333Y-60725095D01*
X141395428Y-60801285D01*
X141395428Y-60915571D01*
X141357333Y-60991761D01*
X141319238Y-61029857D01*
X141243047Y-61067952D01*
X140938285Y-61067952D01*
X141662095Y-60648904D02*
X142157333Y-60648904D01*
X141890666Y-60953666D01*
X142004952Y-60953666D01*
X142081142Y-60991761D01*
X142119238Y-61029857D01*
X142157333Y-61106047D01*
X142157333Y-61296523D01*
X142119238Y-61372714D01*
X142081142Y-61410809D01*
X142004952Y-61448904D01*
X141776380Y-61448904D01*
X141700190Y-61410809D01*
X141662095Y-61372714D01*
%TO.C,JP1*%
X132302333Y-60648904D02*
X132302333Y-61220333D01*
X132264238Y-61334619D01*
X132188047Y-61410809D01*
X132073761Y-61448904D01*
X131997571Y-61448904D01*
X132683285Y-61448904D02*
X132683285Y-60648904D01*
X132988047Y-60648904D01*
X133064238Y-60687000D01*
X133102333Y-60725095D01*
X133140428Y-60801285D01*
X133140428Y-60915571D01*
X133102333Y-60991761D01*
X133064238Y-61029857D01*
X132988047Y-61067952D01*
X132683285Y-61067952D01*
X133902333Y-61448904D02*
X133445190Y-61448904D01*
X133673761Y-61448904D02*
X133673761Y-60648904D01*
X133597571Y-60763190D01*
X133521380Y-60839380D01*
X133445190Y-60877476D01*
%TO.C,J4*%
X120316666Y-61682380D02*
X120316666Y-62396666D01*
X120269047Y-62539523D01*
X120173809Y-62634761D01*
X120030952Y-62682380D01*
X119935714Y-62682380D01*
X121221428Y-62015714D02*
X121221428Y-62682380D01*
X120983333Y-61634761D02*
X120745238Y-62349047D01*
X121364285Y-62349047D01*
%TO.C,JP2*%
X136366333Y-60648904D02*
X136366333Y-61220333D01*
X136328238Y-61334619D01*
X136252047Y-61410809D01*
X136137761Y-61448904D01*
X136061571Y-61448904D01*
X136747285Y-61448904D02*
X136747285Y-60648904D01*
X137052047Y-60648904D01*
X137128238Y-60687000D01*
X137166333Y-60725095D01*
X137204428Y-60801285D01*
X137204428Y-60915571D01*
X137166333Y-60991761D01*
X137128238Y-61029857D01*
X137052047Y-61067952D01*
X136747285Y-61067952D01*
X137509190Y-60725095D02*
X137547285Y-60687000D01*
X137623476Y-60648904D01*
X137813952Y-60648904D01*
X137890142Y-60687000D01*
X137928238Y-60725095D01*
X137966333Y-60801285D01*
X137966333Y-60877476D01*
X137928238Y-60991761D01*
X137471095Y-61448904D01*
X137966333Y-61448904D01*
%TO.C,J2*%
X130095666Y-60666380D02*
X130095666Y-61380666D01*
X130048047Y-61523523D01*
X129952809Y-61618761D01*
X129809952Y-61666380D01*
X129714714Y-61666380D01*
X130524238Y-60761619D02*
X130571857Y-60714000D01*
X130667095Y-60666380D01*
X130905190Y-60666380D01*
X131000428Y-60714000D01*
X131048047Y-60761619D01*
X131095666Y-60856857D01*
X131095666Y-60952095D01*
X131048047Y-61094952D01*
X130476619Y-61666380D01*
X131095666Y-61666380D01*
%TO.C,J3*%
X154519380Y-67516333D02*
X155233666Y-67516333D01*
X155376523Y-67563952D01*
X155471761Y-67659190D01*
X155519380Y-67802047D01*
X155519380Y-67897285D01*
X154519380Y-67135380D02*
X154519380Y-66516333D01*
X154900333Y-66849666D01*
X154900333Y-66706809D01*
X154947952Y-66611571D01*
X154995571Y-66563952D01*
X155090809Y-66516333D01*
X155328904Y-66516333D01*
X155424142Y-66563952D01*
X155471761Y-66611571D01*
X155519380Y-66706809D01*
X155519380Y-66992523D01*
X155471761Y-67087761D01*
X155424142Y-67135380D01*
D11*
%TO.C,J1*%
X136233000Y-85601000D02*
X136233000Y-84281000D01*
X132833000Y-85601000D02*
X136233000Y-85601000D01*
X136233000Y-77981000D02*
X136233000Y-81581000D01*
X117793000Y-81581000D02*
X117793000Y-77981000D01*
X121193000Y-88601000D02*
X132833000Y-88601000D01*
X117793000Y-68881000D02*
X117793000Y-64751000D01*
X122583000Y-61831000D02*
X131483000Y-61831000D01*
X121193000Y-85601000D02*
X121193000Y-88601000D01*
X117793000Y-85601000D02*
X121193000Y-85601000D01*
X131483000Y-64751000D02*
X136233000Y-64751000D01*
X132833000Y-85601000D02*
X132833000Y-88601000D01*
X136233000Y-64751000D02*
X136233000Y-68881000D01*
X122543000Y-61831000D02*
X122543000Y-64751000D01*
X136233000Y-71581000D02*
X136233000Y-75181000D01*
X117793000Y-75181000D02*
X117793000Y-71581000D01*
X117793000Y-85601000D02*
X117793000Y-84281000D01*
X131483000Y-61831000D02*
X131483000Y-64751000D01*
X117793000Y-64751000D02*
X122543000Y-64751000D01*
%TO.C,J5*%
X148590000Y-58233000D02*
X153730000Y-58233000D01*
X148590000Y-60893000D02*
X153730000Y-60893000D01*
X147320000Y-60893000D02*
X145990000Y-60893000D01*
X153730000Y-60893000D02*
X153730000Y-58233000D01*
X148590000Y-60893000D02*
X148590000Y-58233000D01*
X145990000Y-60893000D02*
X145990000Y-59563000D01*
%TO.C,JP3*%
X139824000Y-62911000D02*
X139824000Y-62311000D01*
X140524000Y-61611000D02*
X141924000Y-61611000D01*
X141924000Y-63611000D02*
X140524000Y-63611000D01*
X142624000Y-62311000D02*
X142624000Y-62911000D01*
X141924000Y-63611000D02*
G75*
G03*
X142624000Y-62911000I1J699999D01*
G01*
X139824000Y-62911000D02*
G75*
G03*
X140524000Y-63611000I699999J-1D01*
G01*
X142624000Y-62311000D02*
G75*
G03*
X141924000Y-61611000I-699999J1D01*
G01*
X140524000Y-61611000D02*
G75*
G03*
X139824000Y-62311000I-1J-699999D01*
G01*
%TO.C,JP1*%
X131681000Y-62911000D02*
X131681000Y-62311000D01*
X132381000Y-61611000D02*
X133781000Y-61611000D01*
X133781000Y-63611000D02*
X132381000Y-63611000D01*
X134481000Y-62311000D02*
X134481000Y-62911000D01*
X134481000Y-62311000D02*
G75*
G03*
X133781000Y-61611000I-699999J1D01*
G01*
X132381000Y-61611000D02*
G75*
G03*
X131681000Y-62311000I-1J-699999D01*
G01*
X131681000Y-62911000D02*
G75*
G03*
X132381000Y-63611000I699999J-1D01*
G01*
X133781000Y-63611000D02*
G75*
G03*
X134481000Y-62911000I1J699999D01*
G01*
%TO.C,J4*%
X123190000Y-60893000D02*
X128330000Y-60893000D01*
X128330000Y-60893000D02*
X128330000Y-58233000D01*
X120590000Y-60893000D02*
X120590000Y-59563000D01*
X123190000Y-58233000D02*
X128330000Y-58233000D01*
X121920000Y-60893000D02*
X120590000Y-60893000D01*
X123190000Y-60893000D02*
X123190000Y-58233000D01*
%TO.C,JP2*%
X135013000Y-62911000D02*
X135013000Y-62311000D01*
X138463000Y-63611000D02*
X135663000Y-63611000D01*
X135563000Y-64111000D02*
X136163000Y-64111000D01*
X135863000Y-63811000D02*
X135563000Y-64111000D01*
X135863000Y-63811000D02*
X136163000Y-64111000D01*
X139113000Y-62311000D02*
X139113000Y-62911000D01*
X135663000Y-61611000D02*
X138463000Y-61611000D01*
X138413000Y-63611000D02*
G75*
G03*
X139113000Y-62911000I1J699999D01*
G01*
X135713000Y-61611000D02*
G75*
G03*
X135013000Y-62311000I-1J-699999D01*
G01*
X135013000Y-62911000D02*
G75*
G03*
X135713000Y-63611000I699999J-1D01*
G01*
X139113000Y-62311000D02*
G75*
G03*
X138413000Y-61611000I-699999J1D01*
G01*
%TO.C,J2*%
X128210000Y-55463000D02*
X128210000Y-58123000D01*
X144400000Y-58520071D02*
X144400000Y-58123000D01*
X131700000Y-55463000D02*
X131700000Y-49463000D01*
X140080000Y-58520071D02*
X140080000Y-58123000D01*
X135000000Y-58520071D02*
X135000000Y-58123000D01*
X138430000Y-58123000D02*
X138430000Y-55463000D01*
X134240000Y-58520071D02*
X134240000Y-58123000D01*
X137540000Y-58520071D02*
X137540000Y-58123000D01*
X142620000Y-49463000D02*
X142620000Y-55463000D01*
X129160000Y-58453000D02*
X129160000Y-58123000D01*
X129160000Y-49463000D02*
X129920000Y-49463000D01*
X139320000Y-55463000D02*
X139320000Y-49463000D01*
X146110000Y-58123000D02*
X146110000Y-55463000D01*
X128270000Y-60833000D02*
X128270000Y-59563000D01*
X141860000Y-55463000D02*
X141860000Y-49463000D01*
X135000000Y-49463000D02*
X135000000Y-55463000D01*
X129460000Y-55463000D02*
X129460000Y-49463000D01*
X140970000Y-58123000D02*
X140970000Y-55463000D01*
X129820000Y-55463000D02*
X129820000Y-49463000D01*
X132460000Y-58520071D02*
X132460000Y-58123000D01*
X141860000Y-58520071D02*
X141860000Y-58123000D01*
X129220000Y-55463000D02*
X129220000Y-49463000D01*
X143510000Y-58123000D02*
X143510000Y-55463000D01*
X129340000Y-55463000D02*
X129340000Y-49463000D01*
X137540000Y-49463000D02*
X137540000Y-55463000D01*
X128210000Y-58123000D02*
X146110000Y-58123000D01*
X139320000Y-49463000D02*
X140080000Y-49463000D01*
X146110000Y-55463000D02*
X128210000Y-55463000D01*
X132460000Y-49463000D02*
X132460000Y-55463000D01*
X135890000Y-58123000D02*
X135890000Y-55463000D01*
X129920000Y-58453000D02*
X129920000Y-58123000D01*
X134240000Y-49463000D02*
X135000000Y-49463000D01*
X130810000Y-58123000D02*
X130810000Y-55463000D01*
X142620000Y-58520071D02*
X142620000Y-58123000D01*
X131700000Y-58520071D02*
X131700000Y-58123000D01*
X129700000Y-55463000D02*
X129700000Y-49463000D01*
X145160000Y-49463000D02*
X145160000Y-55463000D01*
X129540000Y-60833000D02*
X128270000Y-60833000D01*
X145160000Y-58520071D02*
X145160000Y-58123000D01*
X144400000Y-55463000D02*
X144400000Y-49463000D01*
X129160000Y-55463000D02*
X129160000Y-49463000D01*
X131700000Y-49463000D02*
X132460000Y-49463000D01*
X133350000Y-58123000D02*
X133350000Y-55463000D01*
X136780000Y-55463000D02*
X136780000Y-49463000D01*
X136780000Y-49463000D02*
X137540000Y-49463000D01*
X141860000Y-49463000D02*
X142620000Y-49463000D01*
X129580000Y-55463000D02*
X129580000Y-49463000D01*
X136780000Y-58520071D02*
X136780000Y-58123000D01*
X129920000Y-49463000D02*
X129920000Y-55463000D01*
X140080000Y-49463000D02*
X140080000Y-55463000D01*
X139320000Y-58520071D02*
X139320000Y-58123000D01*
X144400000Y-49463000D02*
X145160000Y-49463000D01*
X134240000Y-55463000D02*
X134240000Y-49463000D01*
%TO.C,J3*%
X156540000Y-85601000D02*
X156540000Y-84281000D01*
X141500000Y-88601000D02*
X153140000Y-88601000D01*
X142890000Y-61831000D02*
X151790000Y-61831000D01*
X151790000Y-64751000D02*
X156540000Y-64751000D01*
X138100000Y-81581000D02*
X138100000Y-77981000D01*
X156540000Y-77981000D02*
X156540000Y-81581000D01*
X142850000Y-61831000D02*
X142850000Y-64751000D01*
X138100000Y-85601000D02*
X138100000Y-84281000D01*
X138100000Y-64751000D02*
X142850000Y-64751000D01*
X156540000Y-64751000D02*
X156540000Y-68881000D01*
X138100000Y-68881000D02*
X138100000Y-64751000D01*
X153140000Y-85601000D02*
X153140000Y-88601000D01*
X156540000Y-71581000D02*
X156540000Y-75181000D01*
X153140000Y-85601000D02*
X156540000Y-85601000D01*
X151790000Y-61831000D02*
X151790000Y-64751000D01*
X138100000Y-75181000D02*
X138100000Y-71581000D01*
X138100000Y-85601000D02*
X141500000Y-85601000D01*
X141500000Y-85601000D02*
X141500000Y-88601000D01*
%TD*%
M02*
