%TF.GenerationSoftware,KiCad,Pcbnew,(6.0.0-0)*%
%TF.CreationDate,2022-03-04T21:17:09-05:00*%
%TF.ProjectId,audio-jack,61756469-6f2d-46a6-9163-6b2e6b696361,rev?*%
%TF.SameCoordinates,Original*%
%TF.FileFunction,Copper,L1,Top*%
%TF.FilePolarity,Positive*%
%FSLAX46Y46*%
G04 Gerber Fmt 4.6, Leading zero omitted, Abs format (unit mm)*
G04 Created by KiCad (PCBNEW (6.0.0-0)) date 2022-03-04 21:17:09*
%MOMM*%
%LPD*%
G01*
G04 APERTURE LIST*
G04 Aperture macros list*
%AMFreePoly0*
4,1,22,0.500000,-0.750000,0.000000,-0.750000,0.000000,-0.745033,-0.079941,-0.743568,-0.215256,-0.701293,-0.333266,-0.622738,-0.424486,-0.514219,-0.481581,-0.384460,-0.499164,-0.250000,-0.500000,-0.250000,-0.500000,0.250000,-0.499164,0.250000,-0.499963,0.256109,-0.478152,0.396186,-0.417904,0.524511,-0.324060,0.630769,-0.204165,0.706417,-0.067858,0.745374,0.000000,0.744959,0.000000,0.750000,
0.500000,0.750000,0.500000,-0.750000,0.500000,-0.750000,$1*%
%AMFreePoly1*
4,1,20,0.000000,0.744959,0.073905,0.744508,0.209726,0.703889,0.328688,0.626782,0.421226,0.519385,0.479903,0.390333,0.500000,0.250000,0.500000,-0.250000,0.499851,-0.262216,0.476331,-0.402017,0.414519,-0.529596,0.319384,-0.634700,0.198574,-0.708877,0.061801,-0.746166,0.000000,-0.745033,0.000000,-0.750000,-0.500000,-0.750000,-0.500000,0.750000,0.000000,0.750000,0.000000,0.744959,
0.000000,0.744959,$1*%
%AMFreePoly2*
4,1,22,0.550000,-0.750000,0.000000,-0.750000,0.000000,-0.745033,-0.079941,-0.743568,-0.215256,-0.701293,-0.333266,-0.622738,-0.424486,-0.514219,-0.481581,-0.384460,-0.499164,-0.250000,-0.500000,-0.250000,-0.500000,0.250000,-0.499164,0.250000,-0.499963,0.256109,-0.478152,0.396186,-0.417904,0.524511,-0.324060,0.630769,-0.204165,0.706417,-0.067858,0.745374,0.000000,0.744959,0.000000,0.750000,
0.550000,0.750000,0.550000,-0.750000,0.550000,-0.750000,$1*%
%AMFreePoly3*
4,1,20,0.000000,0.744959,0.073905,0.744508,0.209726,0.703889,0.328688,0.626782,0.421226,0.519385,0.479903,0.390333,0.500000,0.250000,0.500000,-0.250000,0.499851,-0.262216,0.476331,-0.402017,0.414519,-0.529596,0.319384,-0.634700,0.198574,-0.708877,0.061801,-0.746166,0.000000,-0.745033,0.000000,-0.750000,-0.550000,-0.750000,-0.550000,0.750000,0.000000,0.750000,0.000000,0.744959,
0.000000,0.744959,$1*%
G04 Aperture macros list end*
%TA.AperFunction,ComponentPad*%
%ADD10C,3.000000*%
%TD*%
%TA.AperFunction,ComponentPad*%
%ADD11R,1.700000X1.700000*%
%TD*%
%TA.AperFunction,ComponentPad*%
%ADD12O,1.700000X1.700000*%
%TD*%
%TA.AperFunction,SMDPad,CuDef*%
%ADD13FreePoly0,0.000000*%
%TD*%
%TA.AperFunction,SMDPad,CuDef*%
%ADD14FreePoly1,0.000000*%
%TD*%
%TA.AperFunction,SMDPad,CuDef*%
%ADD15FreePoly0,180.000000*%
%TD*%
%TA.AperFunction,SMDPad,CuDef*%
%ADD16FreePoly1,180.000000*%
%TD*%
%TA.AperFunction,SMDPad,CuDef*%
%ADD17FreePoly2,0.000000*%
%TD*%
%TA.AperFunction,SMDPad,CuDef*%
%ADD18R,1.000000X1.500000*%
%TD*%
%TA.AperFunction,SMDPad,CuDef*%
%ADD19FreePoly3,0.000000*%
%TD*%
%TA.AperFunction,ViaPad*%
%ADD20C,1.000000*%
%TD*%
%TA.AperFunction,Conductor*%
%ADD21C,0.350000*%
%TD*%
G04 APERTURE END LIST*
%TO.C,JP2*%
G36*
X136663000Y-62911000D02*
G01*
X136163000Y-62911000D01*
X136163000Y-62311000D01*
X136663000Y-62311000D01*
X136663000Y-62911000D01*
G37*
%TD*%
D10*
%TO.P,J1,R,R*%
%TO.N,Net-(JP1-Pad2)*%
X135128000Y-76581000D03*
%TO.P,J1,RN*%
%TO.N,Net-(J1-PadRN)*%
X118898000Y-76581000D03*
%TO.P,J1,S*%
%TO.N,Net-(J1-PadS)*%
X135128000Y-82931000D03*
%TO.P,J1,SN*%
%TO.N,Net-(J1-PadSN)*%
X118898000Y-82931000D03*
%TO.P,J1,T*%
%TO.N,Net-(JP2-Pad1)*%
X135128000Y-70231000D03*
%TO.P,J1,TN*%
%TO.N,Net-(J1-PadTN)*%
X118898000Y-70231000D03*
%TD*%
D11*
%TO.P,J5,1,Pin_1*%
%TO.N,Net-(J3-PadSN)*%
X147320000Y-59563000D03*
D12*
%TO.P,J5,2,Pin_2*%
%TO.N,Net-(J3-PadRN)*%
X149860000Y-59563000D03*
%TO.P,J5,3,Pin_3*%
%TO.N,Net-(J3-PadTN)*%
X152400000Y-59563000D03*
%TD*%
D13*
%TO.P,JP3,1,A*%
%TO.N,Net-(J2-Pad6)*%
X140574000Y-62611000D03*
D14*
%TO.P,JP3,2,B*%
%TO.N,Net-(J3-PadR)*%
X141874000Y-62611000D03*
%TD*%
D15*
%TO.P,JP1,1,A*%
%TO.N,Net-(J2-Pad2)*%
X133731000Y-62611000D03*
D16*
%TO.P,JP1,2,B*%
%TO.N,Net-(JP1-Pad2)*%
X132431000Y-62611000D03*
%TD*%
D11*
%TO.P,J4,1,Pin_1*%
%TO.N,Net-(J1-PadSN)*%
X121920000Y-59563000D03*
D12*
%TO.P,J4,2,Pin_2*%
%TO.N,Net-(J1-PadRN)*%
X124460000Y-59563000D03*
%TO.P,J4,3,Pin_3*%
%TO.N,Net-(J1-PadTN)*%
X127000000Y-59563000D03*
%TD*%
D17*
%TO.P,JP2,1,A*%
%TO.N,Net-(JP2-Pad1)*%
X135763000Y-62611000D03*
D18*
%TO.P,JP2,2,C*%
%TO.N,Net-(J2-Pad3)*%
X137063000Y-62611000D03*
D19*
%TO.P,JP2,3,B*%
%TO.N,Net-(J2-Pad4)*%
X138363000Y-62611000D03*
%TD*%
D11*
%TO.P,J2,1,Pin_1*%
%TO.N,Net-(J1-PadS)*%
X129540000Y-59563000D03*
D12*
%TO.P,J2,2,Pin_2*%
%TO.N,Net-(J2-Pad2)*%
X132080000Y-59563000D03*
%TO.P,J2,3,Pin_3*%
%TO.N,Net-(J2-Pad3)*%
X134620000Y-59563000D03*
%TO.P,J2,4,Pin_4*%
%TO.N,Net-(J2-Pad4)*%
X137160000Y-59563000D03*
%TO.P,J2,5,Pin_5*%
%TO.N,Net-(J2-Pad5)*%
X139700000Y-59563000D03*
%TO.P,J2,6,Pin_6*%
%TO.N,Net-(J2-Pad6)*%
X142240000Y-59563000D03*
%TO.P,J2,7,Pin_7*%
%TO.N,Net-(J2-Pad7)*%
X144780000Y-59563000D03*
%TD*%
D10*
%TO.P,J3,R*%
%TO.N,Net-(J3-PadR)*%
X155435000Y-76581000D03*
%TO.P,J3,RN*%
%TO.N,Net-(J3-PadRN)*%
X139205000Y-76581000D03*
%TO.P,J3,S*%
%TO.N,Net-(J2-Pad5)*%
X155435000Y-82931000D03*
%TO.P,J3,SN*%
%TO.N,Net-(J3-PadSN)*%
X139205000Y-82931000D03*
%TO.P,J3,T*%
%TO.N,Net-(J2-Pad7)*%
X155435000Y-70231000D03*
%TO.P,J3,TN*%
%TO.N,Net-(J3-PadTN)*%
X139205000Y-70231000D03*
%TD*%
D20*
%TO.N,Net-(J1-PadSN)*%
X121793000Y-67945000D03*
%TO.N,Net-(J3-PadSN)*%
X153035000Y-66167000D03*
%TD*%
D21*
%TO.N,Net-(J1-PadSN)*%
X121793000Y-63881000D02*
X121920000Y-63754000D01*
X121920000Y-63754000D02*
X121920000Y-59563000D01*
%TO.N,Net-(J1-PadRN)*%
X118898000Y-76581000D02*
X124460000Y-71019000D01*
X124460000Y-71019000D02*
X124460000Y-59563000D01*
%TO.N,Net-(J3-PadSN)*%
X147320000Y-59563000D02*
X147320000Y-60452000D01*
X147320000Y-60452000D02*
X153035000Y-66167000D01*
%TO.N,Net-(JP1-Pad2)*%
X135128000Y-76581000D02*
X132431000Y-73884000D01*
X132431000Y-73884000D02*
X132431000Y-62611000D01*
%TO.N,Net-(J1-PadS)*%
X129540000Y-59563000D02*
X129540000Y-77343000D01*
X129540000Y-77343000D02*
X135128000Y-82931000D01*
%TO.N,Net-(J2-Pad2)*%
X133731000Y-61214000D02*
X133731000Y-62611000D01*
X132080000Y-59563000D02*
X133731000Y-61214000D01*
%TO.N,Net-(J2-Pad3)*%
X135255000Y-60960000D02*
X134620000Y-60325000D01*
X137063000Y-62611000D02*
X137063000Y-61511000D01*
X134620000Y-60325000D02*
X134620000Y-59563000D01*
X136512000Y-60960000D02*
X135255000Y-60960000D01*
X137063000Y-61511000D02*
X136512000Y-60960000D01*
%TO.N,Net-(J2-Pad4)*%
X137160000Y-59563000D02*
X138363000Y-60766000D01*
X138363000Y-60766000D02*
X138363000Y-62611000D01*
%TO.N,Net-(J2-Pad5)*%
X139700000Y-59563000D02*
X139572489Y-59690511D01*
X139572489Y-61214511D02*
X139446000Y-61341000D01*
X139446000Y-66942000D02*
X155435000Y-82931000D01*
X139446000Y-61341000D02*
X139446000Y-66942000D01*
X139572489Y-59690511D02*
X139572489Y-61214511D01*
%TO.N,Net-(J2-Pad6)*%
X140701000Y-62611000D02*
X140701000Y-61102000D01*
X140701000Y-61102000D02*
X142240000Y-59563000D01*
%TO.N,Net-(J2-Pad7)*%
X152527000Y-70231000D02*
X155435000Y-70231000D01*
X144780000Y-62484000D02*
X152527000Y-70231000D01*
X144780000Y-59563000D02*
X144780000Y-62484000D01*
%TO.N,Net-(J3-PadR)*%
X142001000Y-63147000D02*
X155435000Y-76581000D01*
X142001000Y-62611000D02*
X142001000Y-63147000D01*
%TO.N,Net-(J1-PadSN)*%
X121793000Y-67945000D02*
X121793000Y-63881000D01*
%TO.N,Net-(JP2-Pad1)*%
X135128000Y-70231000D02*
X135128000Y-63246000D01*
X135128000Y-63246000D02*
X135763000Y-62611000D01*
%TD*%
M02*
